<svg width="324" height="451" viewBox="0 0 324 451" fill="none" xmlns="http://www.w3.org/2000/svg">
<g opacity="0.07" clip-path="url(#clip0_406_1916)">
<path fill-rule="evenodd" clip-rule="evenodd" d="M741.329 554.309C741.329 554.309 731.165 530.449 703.277 499.426C690.607 485.322 674.274 469.806 653.515 454.234C640.316 444.335 625.351 434.414 608.389 424.823C587.1 412.783 562.733 401.14 534.613 391.152C441.987 357.757 332.399 311.295 237.346 249.78C172.973 208.119 115.298 159.572 73.9129 103.751C68.5163 96.4676 64.5761 89.9119 61.0777 82.5839C57.9214 76.0064 55.1186 68.8111 51.8961 59.8719C51.4215 58.6249 52.0504 57.2231 53.3085 56.7485C54.5556 56.285 55.957 56.9144 56.4205 58.1725C59.8086 66.8358 62.722 73.8103 65.9666 80.1671C69.4981 87.0757 73.4166 93.245 78.758 100.076C120.916 154.109 179.053 200.449 243.471 240.079C338.944 298.802 448.3 342.637 540.682 373.748C570.104 383.813 595.797 395.357 617.946 407.96C635.747 418.08 651.308 428.796 664.849 439.622C686.16 456.695 702.548 473.934 714.953 489.583C742.488 524.324 750.632 550.943 750.632 550.943C751.559 553.503 750.235 556.339 747.663 557.277C745.103 558.204 742.256 556.869 741.329 554.309Z" fill="white"/>
<path fill-rule="evenodd" clip-rule="evenodd" d="M97.5184 132.687C97.5184 132.687 95.2783 131.606 91.6474 129.553C89.981 128.604 88.0383 127.5 85.9415 126.143C81.1739 123.064 75.5679 118.98 69.0567 115.681C62.6006 112.414 55.5595 109.577 48.2536 108.419C47.4149 108.352 46.7971 107.613 46.8633 106.774C46.9295 105.936 47.6688 105.318 48.5075 105.384C58.429 105.494 68.3836 108.32 77.069 111.884C80.5233 113.308 83.7564 114.819 86.6588 116.409C88.8771 117.623 90.9525 118.803 92.6962 120.062C94.5061 121.375 95.9737 122.699 97.1877 123.869C99.9356 126.496 101.282 128.262 101.282 128.262C102.507 129.299 102.651 131.131 101.613 132.356C100.576 133.581 98.7434 133.725 97.5184 132.687Z" fill="white"/>
<path fill-rule="evenodd" clip-rule="evenodd" d="M169.254 199.839C169.254 199.839 167.179 200.369 163.526 200.7C161.904 200.843 159.995 200.954 157.843 200.843C155.768 200.722 153.506 200.336 151.111 199.872C147.977 199.276 144.655 198.404 141.223 197.312C132.636 194.586 123.609 190.437 116.303 184.102C115.63 183.594 115.486 182.645 115.994 181.972C116.491 181.299 117.451 181.155 118.124 181.652C124.161 185.47 131.025 187.755 137.735 189.322C144.534 190.9 151.155 191.265 156.551 191.86C158.924 192.125 161.021 192.489 162.82 192.798C166.76 193.471 169.077 194.034 169.077 194.034C170.678 193.979 172.013 195.237 172.068 196.838C172.123 198.438 170.854 199.784 169.254 199.839Z" fill="white"/>
<path fill-rule="evenodd" clip-rule="evenodd" d="M126.134 158.975C126.134 158.975 125.351 157.297 124.446 154.262C124.037 152.905 123.596 151.316 123.32 149.473C123.055 147.696 122.989 145.721 122.934 143.613C122.868 140.832 122.967 137.852 123.177 134.784C123.728 126.331 125.185 117.424 128.385 110.681C128.683 109.898 129.556 109.5 130.35 109.787C131.134 110.085 131.531 110.968 131.244 111.752C130.118 115.835 129.809 120.547 129.842 125.425C129.876 130.844 130.516 136.329 131.134 141.284C131.432 143.723 131.829 145.997 132.005 148.061C132.116 149.495 132.116 150.797 132.105 151.978C132.072 155.697 131.851 157.916 131.851 157.916C132.138 159.494 131.101 161.005 129.522 161.303C127.944 161.59 126.421 160.542 126.134 158.975Z" fill="white"/>
<path fill-rule="evenodd" clip-rule="evenodd" d="M297.032 284.688C297.032 284.688 290.829 285.261 280.787 286.144C276.107 286.552 270.622 287.049 264.53 287.501C250.459 288.561 233.243 289.708 215.928 292.611C197.542 295.701 179.035 300.325 164.037 307.631C163.297 308.018 162.381 307.731 161.983 306.991C161.597 306.252 161.885 305.325 162.624 304.938C181.109 294.487 205.388 287.777 228.255 283.551C236.786 281.983 245.107 280.726 252.865 279.832C258.769 279.158 264.321 278.595 269.386 278.352C274.595 278.099 279.263 278.121 283.214 278.187C291.878 278.341 297.076 278.883 297.076 278.883C298.687 278.894 299.978 280.206 299.956 281.807C299.945 283.407 298.632 284.699 297.032 284.688Z" fill="white"/>
<path fill-rule="evenodd" clip-rule="evenodd" d="M213.388 326.116C211.744 319.031 213.543 310.688 216.357 303.128C217.549 299.939 218.917 296.948 220.341 294.277C221.025 292.997 221.676 291.772 222.426 290.712C223.21 289.62 224.027 288.693 224.81 287.898C227.282 285.36 229.026 284.146 229.026 284.146C230.031 282.91 231.84 282.722 233.077 283.727C234.313 284.731 234.5 286.541 233.496 287.777C233.496 287.777 232.922 289.355 231.664 291.938C231.09 293.096 230.461 294.465 229.578 295.91C228.276 298.029 226.51 300.259 224.898 302.786C222.746 306.185 220.573 309.827 218.994 313.668C217.328 317.718 216.169 321.79 216.313 325.73C216.412 326.536 215.85 327.275 215.044 327.385C214.238 327.496 213.499 326.922 213.388 326.116Z" fill="white"/>
<path fill-rule="evenodd" clip-rule="evenodd" d="M288.877 387.531C306.016 371.231 330.736 359.985 354.685 352.415C365.246 349.082 375.631 346.444 385.144 344.458C389.802 343.486 394.249 342.626 398.409 342.03C402.735 341.401 406.753 341.003 410.328 340.727C421.431 339.866 428.361 340.077 428.361 340.077C429.95 339.988 431.308 341.202 431.396 342.78C431.495 344.369 430.282 345.727 428.692 345.826C428.692 345.826 420.548 347.007 407.867 349.313C405.682 349.711 403.365 350.119 400.926 350.539C398.708 350.903 396.39 351.267 393.984 351.653C378.886 354.059 360.578 357.569 342.589 363.329C323.574 369.421 304.912 377.798 290.852 389.716C290.245 390.268 289.318 390.213 288.766 389.606C288.225 388.999 288.281 388.072 288.877 387.531Z" fill="white"/>
<path fill-rule="evenodd" clip-rule="evenodd" d="M218.618 124.775C213.354 136.837 212.681 152.707 213.895 168.643C214.965 182.792 217.724 196.929 220.262 208.528C220.66 210.36 221.046 212.114 221.377 213.814C221.752 215.668 222.073 217.445 222.371 219.122C224.059 228.856 225.218 235.102 225.218 235.102C225.681 236.614 224.831 238.226 223.308 238.689C221.796 239.153 220.185 238.303 219.721 236.78C219.721 236.78 217.139 230.754 214.236 221.042C213.74 219.365 213.255 217.577 212.802 215.69C212.394 213.957 212.018 212.147 211.676 210.271C209.436 198.253 207.648 183.52 207.516 168.919C207.372 152.188 209.524 135.668 215.958 123.495C216.311 122.767 217.194 122.457 217.934 122.811C218.662 123.164 218.971 124.046 218.618 124.775Z" fill="white"/>
<path fill-rule="evenodd" clip-rule="evenodd" d="M46.8558 0.596911C56.7221 -0.0762885 64.3484 3.64228 69.9437 9.93283C73.5194 13.9389 76.1457 19.104 77.9446 24.8979C79.6883 30.5263 80.5715 36.795 80.6598 43.2511C80.8474 57.598 77.0835 72.8717 70.7709 84.5589L69.3584 87.2519L66.4006 86.5015C50.9281 82.2526 39.3849 64.7599 34.2753 46.3739C30.512 32.8106 30.1583 18.9495 33.7229 10.2972C36.2391 4.18327 40.5763 0.464478 46.8558 0.596911ZM65.3081 78.0918C53.3229 73.5008 44.5825 59.2535 39.9253 44.6859C36.0185 32.48 34.9704 19.9096 37.8729 11.9085C39.4952 7.46093 42.3531 4.50335 46.8558 4.40402C53.4995 4.87857 58.4878 7.61532 62.3174 11.6545C66.0806 15.6275 68.4869 21.0135 70.0319 27.1275C71.3011 32.1599 71.9081 37.667 71.9854 43.3616C72.1178 55.2254 69.866 67.8393 65.3081 78.0918Z" fill="white"/>
<path fill-rule="evenodd" clip-rule="evenodd" d="M1.71456 91.0699C3.78934 83.1791 9.82567 79.0955 17.595 77.9478C21.7777 77.3297 26.5014 77.7493 31.3793 78.9743C36.0034 80.1331 40.7708 82.0971 45.3286 84.7126C55.4597 90.5286 64.5316 99.5453 69.5198 109.676L71.385 113.341L67.6217 114.973C56.3318 119.576 33.5092 122.048 17.7607 117.656C9.62718 115.393 3.3588 111.332 1.0302 105.185C-0.426559 101.366 -0.459541 96.6983 1.71456 91.0699ZM60.415 109.511C49.4782 113.219 31.9091 115.239 19.1073 112.347C8.623 109.963 1.44983 104.125 5.30141 92.3497C7.35412 87.8801 11.0621 85.7947 15.5096 85.1215C19.5709 84.5034 24.2282 85.287 29.1282 86.8762C33.046 88.1343 37.063 89.9658 41.0029 92.2393C48.4963 96.5544 55.6474 102.481 60.415 109.511Z" fill="white"/>
<path fill-rule="evenodd" clip-rule="evenodd" d="M51.0687 158.919L53.2646 158.411C61.2768 156.215 70.5253 154.637 79.9501 154.78C86.042 154.879 92.1782 155.729 98.0494 157.396C112.462 161.512 125.264 170.617 132.437 186.785L133.894 189.964L130.683 191.354C119.393 196.044 100.809 199.929 83.9896 194.609C70.8788 190.46 58.7276 180.836 52.0508 161.589L51.0687 158.919ZM56.7747 163.057C65.3166 161.733 75.0168 161.568 84.585 162.804C91.0853 163.643 97.5528 165.099 103.534 167.759C111.922 171.489 119.382 177.394 124.558 186.487C114.316 190.438 99.3956 193.319 85.5233 189.445C74.1452 186.256 63.5397 178.475 56.7747 163.057Z" fill="white"/>
<path fill-rule="evenodd" clip-rule="evenodd" d="M102.172 307.918L103.64 306.66C110.052 300.645 117.744 295.58 126.23 292.037C131.782 289.709 137.675 288.065 143.645 287.138C158.886 284.765 174.668 287.071 187.867 294.675L191.221 296.551L189.015 299.685C183.099 307.797 167.229 323.093 148.325 327.066C134.232 330.023 118.417 326.933 103.894 309.872L102.172 307.918ZM108.628 309.342C114.632 304.949 121.584 301.55 128.901 298.99C134.066 297.18 139.419 295.834 144.848 295.006C157.12 293.141 169.778 294.002 180.903 298.957C174.513 306.804 161.976 318.138 147.122 321.769C135.114 324.704 121.64 322.486 108.628 309.342Z" fill="white"/>
<path fill-rule="evenodd" clip-rule="evenodd" d="M181.294 367.379V365.338C181.14 362.336 181.526 351.035 185.212 338.984C186.912 333.4 189.439 327.716 192.662 322.606C198.378 313.535 206.512 306.383 217.448 304.551L219.766 304.121L221.024 306.13C227.911 317.618 228.308 334.713 220.152 347.956C213.696 358.44 201.976 366.618 183.976 367.236L181.294 367.379ZM216.389 311.978C221.355 321.403 221.444 334.569 215.451 345.186C210.408 354.158 201.06 361.287 186.713 363.141C187.375 358.848 189.285 350.417 192.551 341.444C194.35 336.511 196.48 331.369 199.316 326.745C203.421 320.035 208.84 314.274 216.389 311.978Z" fill="white"/>
<path fill-rule="evenodd" clip-rule="evenodd" d="M234.077 418.42L235.688 416.489C241.626 408.73 248.402 399.57 256.26 391.602C261.557 386.228 267.373 381.449 273.343 377.685C285.075 370.291 297.678 367.047 310.248 371.715L313.845 372.995L312.201 376.449C307.169 386.525 295.161 411.776 275.506 421.642C264.856 426.984 251.988 428.032 236.792 419.832L234.077 418.42ZM241.471 417.801C247.475 411.213 254.416 403.952 261.678 397.175C266.799 392.397 272.053 387.828 277.549 384.274C286.068 378.756 295.04 375.445 304.266 377.222C299.146 388.346 289.236 408.388 273.156 417.128C264.471 421.852 253.975 423.143 241.471 417.801Z" fill="white"/>
<path fill-rule="evenodd" clip-rule="evenodd" d="M275.985 298.59L278.125 298.91C285.442 299.716 295.805 302.707 306.665 307.596C312.47 310.212 318.396 313.39 324.08 316.977C339.894 326.986 353.69 340.163 358.468 353.153L360.013 357.214L355.698 357.81C332.909 360.679 314.931 356.276 301.864 348.143C283.522 336.709 274.771 317.937 275.841 301.372L275.985 298.59ZM279.66 304.517C287.407 306.449 297.759 311.117 308.42 316.999C314.898 320.563 321.531 324.536 327.623 328.939C337.147 335.815 345.49 343.519 350.037 351.564C331.209 353.628 316.045 350.118 304.678 343.485C288.742 334.193 280.256 318.853 279.66 304.517Z" fill="white"/>
<path fill-rule="evenodd" clip-rule="evenodd" d="M145.403 64.3962C152.93 66.2834 156.914 72.0773 158.051 79.7143C158.647 83.6872 158.272 88.2124 157.135 92.9469C156.075 97.3392 154.266 101.919 151.816 106.378C146.673 115.758 138.704 124.598 129.335 130.723L126.233 132.809L124.048 129.785C115.782 117.745 114.756 102.912 117.946 90.3091C120.186 81.5134 124.401 73.8547 129.39 69.0871C134.356 64.3416 140.05 62.3546 145.403 64.3962ZM128.099 122.005C122.492 112.602 121.72 101.389 123.685 91.6112C125.572 82.2195 129.897 74.0642 135.228 70.0692C138.042 67.9613 141.099 67.0119 144.156 67.9831C148.35 69.9034 150.27 73.4348 150.888 77.7279C151.44 81.5794 150.701 86.0048 149.211 90.7503C148.03 94.4805 146.33 98.3544 144.211 102.206C140.249 109.413 134.786 116.542 128.099 122.005Z" fill="white"/>
<path fill-rule="evenodd" clip-rule="evenodd" d="M224.674 52.9833L225.734 53.7344C235.843 60.3119 241.803 70.1005 244.142 80.9931C245.676 88.1334 245.555 95.7595 244.208 103.143C240.611 122.853 227.931 140.864 212.292 146.139L209.247 147.209L208.087 144.196C202.525 129.099 199.81 112.346 201.499 96.7193C203.287 80.2867 209.875 65.1011 223.008 54.3851L224.674 52.9833ZM223.803 58.7998C231.285 65.0241 235.126 73.4448 236.626 82.4171C237.686 88.7076 237.576 95.2959 236.439 101.741C233.658 117.545 224.962 132.554 213.054 138.579C208.187 125.347 205.682 110.879 206.752 97.205C207.889 82.6374 213.054 68.986 223.803 58.7998Z" fill="white"/>
<path fill-rule="evenodd" clip-rule="evenodd" d="M252.232 138.568L252.762 140.08C256.172 148.236 257.32 155.288 256.58 161.269C255.885 166.864 253.534 171.533 250.212 175.263C242.939 183.452 230.347 187.16 216.618 186.906H213.297V183.584C213.617 168.984 217.071 159.47 221.982 153.113C229.707 143.093 241.052 140.797 249.914 139.076L252.232 138.568ZM248.314 143.391C249.925 149.913 249.947 155.409 249.031 160.066C248.248 164.039 246.648 167.339 244.286 170.043C238.9 176.223 229.983 179.391 219.93 180.108C220.128 169.083 222.534 161.523 226.231 156.237C232.058 147.894 240.887 145.234 248.314 143.391Z" fill="white"/>
<path fill-rule="evenodd" clip-rule="evenodd" d="M291.996 227L293.464 226.669C303.451 223.899 312.656 223.612 320.988 225.775C327.091 227.365 332.708 230.3 337.774 234.361C348.004 242.561 355.972 255.617 361.656 272.656L363.41 277.689L358.102 277.148C341.272 275.161 320.624 273.009 307.027 261.797C298.728 254.954 292.89 244.824 292.151 229.307L291.996 227ZM296.19 231.437C304.555 230.146 312.071 230.83 318.891 233.026C323.934 234.648 328.559 237.153 332.819 240.553C341.096 247.163 347.993 257.04 353.323 269.941C338.579 268.694 321.849 266.83 310.173 257.846C302.944 252.306 297.746 244.007 296.19 231.437Z" fill="white"/>
</g>
<defs>
<clipPath id="clip0_406_1916">
<rect width="324" height="450.481" fill="white" transform="matrix(-1 0 0 1 324 0.518738)"/>
</clipPath>
</defs>
</svg>
