<svg width="197" height="53" viewBox="0 0 197 53" fill="none" xmlns="http://www.w3.org/2000/svg">
<g filter="url(#filter0_d_502_399)">
<path d="M9.3457 4.64844L14.0625 17.1816L18.7681 4.64844H22.4404V21H19.6104V15.6094L19.8911 8.39941L15.062 21H13.0293L8.21143 8.41064L8.49219 15.6094V21H5.66211V4.64844H9.3457ZM31.1081 21H28.278V4.64844H31.1081V21ZM45.4472 16.7886C45.4472 16.0698 45.1926 15.5158 44.6835 15.1265C44.1819 14.7371 43.2722 14.3441 41.9545 13.9473C40.6368 13.5505 39.5886 13.1087 38.81 12.6221C37.3201 11.6862 36.5751 10.4658 36.5751 8.96094C36.5751 7.64323 37.1104 6.55762 38.1811 5.7041C39.2592 4.85059 40.6555 4.42383 42.37 4.42383C43.508 4.42383 44.5225 4.63346 45.4135 5.05273C46.3044 5.47201 47.0045 6.07096 47.5136 6.84961C48.0227 7.62077 48.2772 8.47803 48.2772 9.42139H45.4472C45.4472 8.56787 45.1776 7.90153 44.6386 7.42236C44.107 6.93571 43.3433 6.69238 42.3476 6.69238C41.4192 6.69238 40.6967 6.89079 40.1801 7.2876C39.671 7.68441 39.4164 8.23844 39.4164 8.94971C39.4164 9.54867 39.6934 10.0503 40.2475 10.4546C40.8015 10.8514 41.7149 11.2407 42.9877 11.6226C44.2605 11.9969 45.2825 12.4274 46.0536 12.9141C46.8248 13.3932 47.39 13.9473 47.7494 14.5762C48.1088 15.1976 48.2885 15.9276 48.2885 16.7661C48.2885 18.1287 47.7644 19.2144 46.7162 20.0229C45.6755 20.8241 44.2605 21.2246 42.4711 21.2246C41.2882 21.2246 40.1988 21.0075 39.203 20.5732C38.2147 20.1315 37.4436 19.5251 36.8896 18.7539C36.343 17.9827 36.0697 17.0843 36.0697 16.0586H38.911C38.911 16.987 39.218 17.7057 39.8319 18.2148C40.4459 18.724 41.3256 18.9785 42.4711 18.9785C43.4594 18.9785 44.2006 18.7801 44.6947 18.3833C45.1964 17.979 45.4472 17.4474 45.4472 16.7886ZM64.8961 6.93945H59.7975V21H56.9786V6.93945H51.9249V4.64844H64.8961V6.93945ZM89.2393 18.8774C88.6478 19.6486 87.828 20.2326 86.7798 20.6294C85.7316 21.0262 84.5412 21.2246 83.2085 21.2246C81.8384 21.2246 80.6255 20.9139 79.5698 20.2925C78.5142 19.6711 77.6981 18.7839 77.1216 17.6309C76.5526 16.4704 76.2568 15.119 76.2344 13.5767V12.2964C76.2344 9.82568 76.8258 7.89779 78.0088 6.5127C79.1917 5.12012 80.8426 4.42383 82.9614 4.42383C84.7808 4.42383 86.2257 4.87305 87.2964 5.77148C88.367 6.66992 89.0109 7.96517 89.228 9.65723H86.4429C86.1284 7.68815 84.9867 6.70361 83.0176 6.70361C81.7448 6.70361 80.7752 7.16406 80.1089 8.08496C79.45 8.99837 79.1094 10.3423 79.0869 12.1167V13.3745C79.0869 15.1414 79.4575 16.5153 80.1987 17.4961C80.9474 18.4694 81.9844 18.9561 83.3096 18.9561C84.762 18.9561 85.7952 18.6266 86.4092 17.9678V14.7671H83.04V12.6108H89.2393V18.8774ZM103.814 17.1929H97.4802L96.155 21H93.2014L99.3781 4.64844H101.927L108.115 21H105.151L103.814 17.1929ZM98.2775 14.9019H103.017L100.647 8.11865L98.2775 14.9019ZM118.288 14.6997H115.121V21H112.28V4.64844H118.03C119.916 4.64844 121.373 5.07145 122.398 5.91748C123.424 6.76351 123.937 7.98763 123.937 9.58984C123.937 10.6829 123.671 11.6001 123.14 12.3413C122.615 13.075 121.882 13.6403 120.938 14.0371L124.611 20.854V21H121.567L118.288 14.6997ZM115.121 12.4199H118.041C118.999 12.4199 119.748 12.1803 120.287 11.7012C120.826 11.2145 121.096 10.5519 121.096 9.71338C121.096 8.8374 120.845 8.15983 120.343 7.68066C119.849 7.2015 119.108 6.95443 118.12 6.93945H115.121V12.4199ZM128.932 21V4.64844H133.761C135.206 4.64844 136.487 4.97038 137.602 5.61426C138.725 6.25814 139.594 7.17155 140.208 8.35449C140.822 9.53743 141.129 10.8926 141.129 12.4199V13.2397C141.129 14.7896 140.818 16.1522 140.196 17.3276C139.582 18.5031 138.703 19.409 137.557 20.0454C136.419 20.6818 135.113 21 133.638 21H128.932ZM131.774 6.93945V18.7314H133.627C135.116 18.7314 136.258 18.2673 137.052 17.3389C137.853 16.403 138.261 15.0628 138.276 13.3184V12.4087C138.276 10.6343 137.89 9.27913 137.119 8.34326C136.348 7.40739 135.229 6.93945 133.761 6.93945H131.774ZM155.816 13.7002H149.1V18.7314H156.95V21H146.259V4.64844H156.871V6.93945H149.1V11.4541H155.816V13.7002ZM174.535 21H171.693L164.405 9.39893V21H161.563V4.64844H164.405L171.716 16.2944V4.64844H174.535V21ZM188.739 16.7886C188.739 16.0698 188.484 15.5158 187.975 15.1265C187.474 14.7371 186.564 14.3441 185.246 13.9473C183.929 13.5505 182.88 13.1087 182.102 12.6221C180.612 11.6862 179.867 10.4658 179.867 8.96094C179.867 7.64323 180.402 6.55762 181.473 5.7041C182.551 4.85059 183.947 4.42383 185.662 4.42383C186.8 4.42383 187.814 4.63346 188.705 5.05273C189.596 5.47201 190.296 6.07096 190.805 6.84961C191.314 7.62077 191.569 8.47803 191.569 9.42139H188.739C188.739 8.56787 188.469 7.90153 187.93 7.42236C187.399 6.93571 186.635 6.69238 185.639 6.69238C184.711 6.69238 183.988 6.89079 183.472 7.2876C182.963 7.68441 182.708 8.23844 182.708 8.94971C182.708 9.54867 182.985 10.0503 183.539 10.4546C184.093 10.8514 185.007 11.2407 186.279 11.6226C187.552 11.9969 188.574 12.4274 189.345 12.9141C190.117 13.3932 190.682 13.9473 191.041 14.5762C191.401 15.1976 191.58 15.9276 191.58 16.7661C191.58 18.1287 191.056 19.2144 190.008 20.0229C188.967 20.8241 187.552 21.2246 185.763 21.2246C184.58 21.2246 183.491 21.0075 182.495 20.5732C181.507 20.1315 180.735 19.5251 180.181 18.7539C179.635 17.9827 179.362 17.0843 179.362 16.0586H182.203C182.203 16.987 182.51 17.7057 183.124 18.2148C183.738 18.724 184.617 18.9785 185.763 18.9785C186.751 18.9785 187.492 18.7801 187.987 18.3833C188.488 17.979 188.739 17.4474 188.739 16.7886Z" fill="#343D33"/>
<path d="M8.021 33.3359L9.88867 42.0225L14.7812 33.3359H16.5903L14.7373 44H13.3677L14.1001 39.7812L14.9717 35.4893L10.1377 44H9.08301L7.17871 35.3208L6.51953 39.9204L5.80908 44H4.43213L6.28516 33.3359H8.021ZM22.1822 43.2163C21.5621 43.856 20.7735 44.166 19.8165 44.1465C19.0597 44.127 18.4981 43.856 18.1319 43.3335C17.7706 42.811 17.6363 42.0981 17.7291 41.1948L18.5787 36.0752H19.9044L19.0475 41.2168C19.023 41.4316 19.0182 41.6416 19.0328 41.8467C19.0572 42.1982 19.1622 42.4741 19.3478 42.6743C19.5333 42.8745 19.7921 42.9819 20.1241 42.9966C21.0714 43.0259 21.8038 42.6426 22.3214 41.8467L23.3175 36.0752H24.6432L23.2662 44H22.0138L22.1822 43.2163ZM30.3083 41.854C30.3815 41.3071 30.0812 40.9214 29.4074 40.6968L28.0305 40.2939C26.8684 39.8936 26.3068 39.2295 26.3459 38.3018C26.3801 37.6035 26.6975 37.0322 27.298 36.5879C27.9035 36.1387 28.614 35.9189 29.4294 35.9287C30.2302 35.9385 30.8796 36.1729 31.3776 36.6318C31.8806 37.0859 32.1223 37.6792 32.1027 38.4116L30.7844 38.4043C30.7941 38.0088 30.6696 37.6865 30.4108 37.4375C30.1521 37.1885 29.8078 37.0591 29.3781 37.0493C28.9191 37.0396 28.5236 37.1519 28.1916 37.3862C27.884 37.606 27.7058 37.894 27.6569 38.2505C27.5935 38.7095 27.8742 39.0439 28.4992 39.2539L29.1657 39.437C30.0739 39.6714 30.7185 39.9766 31.0993 40.3525C31.4802 40.7285 31.656 41.1948 31.6267 41.7515C31.5974 42.2446 31.4362 42.6743 31.1433 43.0405C30.8503 43.4067 30.4597 43.6875 29.9714 43.8828C29.4831 44.0732 28.9631 44.1611 28.4113 44.1465C27.5715 44.1367 26.8781 43.8926 26.3312 43.4141C25.7844 42.9307 25.5207 42.3105 25.5402 41.5537L26.8659 41.561C26.8659 42.0054 27.0075 42.3618 27.2907 42.6304C27.5739 42.8989 27.9621 43.0332 28.4553 43.0332C28.9387 43.043 29.3562 42.9429 29.7077 42.7329C30.0593 42.5181 30.2595 42.2251 30.3083 41.854ZM36.5521 44.1465C35.5657 44.127 34.7942 43.7632 34.2376 43.0552C33.681 42.3472 33.4466 41.4414 33.5345 40.3379L33.5711 40.0229C33.6541 39.2368 33.886 38.519 34.2669 37.8696C34.6526 37.2202 35.1214 36.7319 35.6731 36.4048C36.2249 36.0728 36.8206 35.9141 37.4603 35.9287C38.2757 35.9482 38.9153 36.2192 39.3792 36.7417C39.8431 37.2642 40.097 37.9722 40.1409 38.8657C40.1556 39.1831 40.1458 39.5005 40.1116 39.8179L40.0311 40.4258H34.8528C34.7649 41.1436 34.8821 41.7539 35.2044 42.2568C35.5315 42.7598 36.0174 43.021 36.6619 43.0405C37.4432 43.0601 38.1658 42.7085 38.8299 41.9858L39.5916 42.6304C39.2596 43.1089 38.8299 43.4849 38.3025 43.7583C37.7801 44.0269 37.1966 44.1562 36.5521 44.1465ZM37.3943 37.0347C36.8475 37.02 36.3689 37.2056 35.9588 37.5913C35.5535 37.9771 35.2313 38.5508 34.992 39.3125L38.8445 39.3198L38.8738 39.2026C38.952 38.5874 38.8519 38.0771 38.5735 37.6719C38.3001 37.2617 37.907 37.0493 37.3943 37.0347ZM46.0844 43.2163C45.4643 43.856 44.6757 44.166 43.7187 44.1465C42.9618 44.127 42.4003 43.856 42.0341 43.3335C41.6728 42.811 41.5385 42.0981 41.6312 41.1948L42.4809 36.0752H43.8065L42.9496 41.2168C42.9252 41.4316 42.9203 41.6416 42.935 41.8467C42.9594 42.1982 43.0644 42.4741 43.2499 42.6743C43.4354 42.8745 43.6942 42.9819 44.0263 42.9966C44.9735 43.0259 45.706 42.6426 46.2235 41.8467L47.2196 36.0752H48.5453L47.1684 44H45.9159L46.0844 43.2163ZM51.918 36.0679L51.7495 36.9541C52.4136 36.251 53.2168 35.9092 54.1592 35.9287C54.6621 35.9385 55.0869 36.0532 55.4336 36.2729C55.7852 36.4927 56.0269 36.8027 56.1587 37.2031C56.9009 36.334 57.7773 35.9092 58.7881 35.9287C59.5791 35.9482 60.1626 36.2144 60.5386 36.7271C60.9146 37.2397 61.0537 37.9282 60.9561 38.7925L60.0845 44H58.7661L59.6304 38.7778C59.6597 38.5239 59.6597 38.292 59.6304 38.082C59.5376 37.418 59.103 37.0786 58.3267 37.064C57.8433 37.0542 57.4038 37.2056 57.0083 37.5181C56.6177 37.8257 56.3662 38.231 56.2539 38.7339L55.353 44H54.02L54.8989 38.7852C54.9624 38.2432 54.8794 37.8257 54.6499 37.5327C54.4253 37.2397 54.0737 37.0884 53.5952 37.0786C52.77 37.0591 52.1133 37.4351 51.625 38.2065L50.6216 44H49.2959L50.6729 36.0752L51.918 36.0679ZM66.405 41.1875C66.4782 40.2793 67.0202 39.4688 68.031 38.7559L68.8659 38.1992L68.551 37.6353C68.1994 36.9907 68.0432 36.3926 68.0822 35.8408C68.1408 35.0352 68.4338 34.3882 68.9611 33.8999C69.4885 33.4067 70.1525 33.1699 70.9533 33.1895C71.6125 33.1992 72.1569 33.4141 72.5866 33.834C73.0163 34.249 73.2116 34.7666 73.1726 35.3867C73.1286 36.2266 72.6086 36.9956 71.6125 37.6938L70.5358 38.4116L72.3596 41.2021C72.8039 40.543 73.0822 39.835 73.1945 39.0781H74.3737C74.2419 40.3232 73.8 41.3657 73.048 42.2056L74.1979 44H72.7185L72.1838 43.1724C71.3342 43.8364 70.3991 44.1587 69.3786 44.1392C68.4558 44.1294 67.7136 43.8511 67.1521 43.3042C66.5905 42.7524 66.3415 42.0469 66.405 41.1875ZM69.4226 43.0405C70.0769 43.0552 70.7702 42.7793 71.5026 42.2129L69.5178 39.1074L69.2028 39.3271C68.3288 39.9326 67.8454 40.5552 67.7526 41.1948C67.6794 41.7222 67.7966 42.1592 68.1042 42.5059C68.4118 42.8525 68.8513 43.0308 69.4226 43.0405ZM69.3859 35.7896C69.3469 36.1997 69.4665 36.6514 69.7448 37.1445L69.9426 37.4888L71.0632 36.7344C71.5856 36.3438 71.8737 35.8921 71.9274 35.3794C71.9567 35.0669 71.8713 34.8081 71.6711 34.603C71.4709 34.3979 71.2048 34.2954 70.8728 34.2954C70.4675 34.2954 70.1281 34.4443 69.8547 34.7422C69.5812 35.0352 69.425 35.3843 69.3859 35.7896ZM79.4198 44L81.2729 33.3359L84.4003 33.3433C85.4892 33.3433 86.3046 33.5874 86.8466 34.0757C87.3886 34.564 87.6254 35.2451 87.557 36.1191C87.4691 37.1396 86.827 37.9087 85.6308 38.4263C86.1093 38.6118 86.4657 38.9292 86.7001 39.3784C86.9394 39.8276 87.037 40.3232 86.9931 40.8652C86.9198 41.8271 86.5341 42.5913 85.8358 43.1577C85.1376 43.7192 84.2343 44 83.1259 44H79.4198ZM81.661 39.0122L80.9945 42.8501L83.1698 42.8574C83.8339 42.8574 84.3905 42.6792 84.8397 42.3228C85.289 41.9663 85.5502 41.4854 85.6234 40.8799C85.6918 40.3037 85.5917 39.8545 85.3231 39.5322C85.0546 39.21 84.6322 39.0391 84.0561 39.0195L81.661 39.0122ZM81.8588 37.8843L83.8437 37.8916C84.4638 37.8916 84.9862 37.7329 85.411 37.4155C85.8407 37.0981 86.0922 36.6611 86.1654 36.1045C86.2289 35.5869 86.1264 35.1963 85.8578 34.9326C85.5941 34.6689 85.1547 34.5249 84.5395 34.5005L82.4447 34.4932L81.8588 37.8843ZM92.9072 35.9287C93.5713 35.9385 94.1401 36.1191 94.6138 36.4707C95.0874 36.8223 95.4365 37.3081 95.6611 37.9282C95.8906 38.5435 95.9688 39.2173 95.8955 39.9497L95.8809 40.1108C95.7881 40.8823 95.5586 41.5806 95.1924 42.2056C94.8262 42.8257 94.3525 43.3091 93.7715 43.6558C93.1904 44.0024 92.5532 44.166 91.8599 44.1465C91.2007 44.1367 90.6318 43.9561 90.1533 43.6045C89.6797 43.2529 89.333 42.7744 89.1133 42.1689C88.8936 41.5635 88.8154 40.897 88.8789 40.1694C88.9521 39.3491 89.1743 38.6118 89.5454 37.9575C89.9165 37.3032 90.3926 36.7979 90.9736 36.4414C91.5596 36.0801 92.2041 35.9092 92.9072 35.9287ZM90.2119 40.1768C90.1777 40.4844 90.1777 40.8042 90.2119 41.1362C90.2607 41.7124 90.4316 42.1714 90.7246 42.5132C91.0225 42.855 91.418 43.0332 91.9111 43.0479C92.3506 43.0625 92.7559 42.9551 93.127 42.7256C93.498 42.4912 93.8105 42.1396 94.0645 41.6709C94.3184 41.2021 94.4819 40.6821 94.5552 40.1108C94.5942 39.6616 94.6016 39.2832 94.5771 38.9756C94.5186 38.3848 94.3403 37.9185 94.0425 37.5767C93.7446 37.2349 93.3491 37.0542 92.856 37.0347C92.1724 37.02 91.5913 37.2886 91.1128 37.8403C90.6343 38.3921 90.3389 39.1147 90.2266 40.0083L90.2119 40.1768ZM100.535 34.1562L100.198 36.0752H101.641L101.458 37.1226H100.023L99.1949 42.0518C99.1803 42.1787 99.1778 42.2959 99.1876 42.4033C99.2218 42.7842 99.4293 42.9746 99.8102 42.9746C99.9713 42.9746 100.186 42.9502 100.455 42.9014L100.352 44.0073C100.035 44.0952 99.7125 44.1392 99.3854 44.1392C98.858 44.1294 98.4625 43.9365 98.1988 43.5605C97.9352 43.1797 97.8326 42.6694 97.8912 42.0298L98.6969 37.1226H97.298L97.4811 36.0752H98.88L99.2169 34.1562H100.535ZM106.867 44C106.833 43.8584 106.816 43.7192 106.816 43.5825L106.838 43.165C106.11 43.8389 105.339 44.166 104.523 44.1465C103.825 44.1367 103.256 43.917 102.817 43.4873C102.382 43.0527 102.184 42.5107 102.223 41.8613C102.272 41.0215 102.638 40.3672 103.322 39.8984C104.01 39.4248 104.914 39.188 106.032 39.188L107.416 39.1953L107.504 38.5654C107.553 38.0918 107.46 37.7183 107.226 37.4448C106.996 37.1665 106.65 37.0225 106.186 37.0127C105.732 37.0029 105.329 37.1152 104.977 37.3496C104.631 37.5791 104.418 37.8843 104.34 38.2651L103.007 38.2725C103.051 37.8086 103.232 37.3984 103.549 37.042C103.866 36.6807 104.274 36.4023 104.772 36.207C105.27 36.0068 105.785 35.9116 106.318 35.9214C107.143 35.9409 107.785 36.1924 108.244 36.6758C108.703 37.1543 108.896 37.7915 108.822 38.5874L108.178 42.5132L108.141 43.0771C108.132 43.3457 108.161 43.6118 108.229 43.8755L108.215 44H106.867ZM104.787 42.9746C105.212 42.9844 105.612 42.8843 105.988 42.6743C106.369 42.4595 106.696 42.1641 106.969 41.7881L107.255 40.1548L106.252 40.1475C105.417 40.1475 104.777 40.2793 104.333 40.543C103.888 40.8066 103.637 41.1802 103.578 41.6636C103.534 42.0347 103.62 42.3447 103.835 42.5938C104.054 42.8379 104.372 42.9648 104.787 42.9746ZM112.796 36.0679L112.605 37.0713C113.318 36.29 114.129 35.9092 115.037 35.9287C115.784 35.9482 116.336 36.207 116.692 36.7051C117.049 37.2031 117.18 37.9038 117.088 38.8071L116.223 44H114.898L115.769 38.7852C115.799 38.5459 115.801 38.3237 115.777 38.1187C115.694 37.4351 115.291 37.0859 114.568 37.0713C113.772 37.0566 113.074 37.4814 112.473 38.3457L111.492 44H110.166L111.543 36.0752L112.796 36.0679ZM119.852 44H118.534L119.911 36.0752H121.229L119.852 44ZM120.944 33.1821C121.168 33.1724 121.354 33.2407 121.5 33.3872C121.652 33.5288 121.727 33.7168 121.727 33.9512C121.723 34.1807 121.647 34.3687 121.5 34.5151C121.359 34.6616 121.173 34.7397 120.944 34.7495C120.714 34.7593 120.526 34.6934 120.38 34.5518C120.233 34.4102 120.162 34.2246 120.167 33.9951C120.172 33.7656 120.246 33.5752 120.387 33.4238C120.529 33.2725 120.714 33.1919 120.944 33.1821ZM125.518 43.0479C125.991 43.0576 126.418 42.9209 126.799 42.6377C127.18 42.3496 127.429 41.9736 127.546 41.5098L128.799 41.5024C128.726 42.0005 128.525 42.4546 128.198 42.8647C127.876 43.2749 127.468 43.5947 126.975 43.8242C126.482 44.0537 125.977 44.1611 125.459 44.1465C124.8 44.1367 124.241 43.9658 123.782 43.6338C123.328 43.2969 122.993 42.8306 122.778 42.2349C122.563 41.6343 122.49 40.9604 122.559 40.2134L122.595 39.8472C122.688 39.0854 122.91 38.4043 123.262 37.8037C123.613 37.2031 124.072 36.7368 124.639 36.4048C125.205 36.0679 125.83 35.9092 126.514 35.9287C127.344 35.9482 128.008 36.2266 128.506 36.7637C129.004 37.3008 129.253 37.9819 129.253 38.8071L128.015 38.7998C128.005 38.2822 127.861 37.8647 127.583 37.5474C127.305 37.2251 126.929 37.0542 126.455 37.0347C125.767 37.02 125.193 37.2764 124.734 37.8037C124.28 38.3311 123.997 39.0684 123.884 40.0156L123.862 40.2061C123.833 40.5186 123.828 40.8408 123.848 41.1729C123.882 41.7441 124.043 42.1958 124.331 42.5278C124.619 42.8599 125.015 43.0332 125.518 43.0479ZM134.859 44C134.825 43.8584 134.808 43.7192 134.808 43.5825L134.83 43.165C134.103 43.8389 133.331 44.166 132.516 44.1465C131.817 44.1367 131.249 43.917 130.809 43.4873C130.375 43.0527 130.177 42.5107 130.216 41.8613C130.265 41.0215 130.631 40.3672 131.315 39.8984C132.003 39.4248 132.906 39.188 134.025 39.188L135.409 39.1953L135.497 38.5654C135.546 38.0918 135.453 37.7183 135.218 37.4448C134.989 37.1665 134.642 37.0225 134.178 37.0127C133.724 37.0029 133.321 37.1152 132.97 37.3496C132.623 37.5791 132.411 37.8843 132.333 38.2651L131 38.2725C131.044 37.8086 131.224 37.3984 131.542 37.042C131.859 36.6807 132.267 36.4023 132.765 36.207C133.263 36.0068 133.778 35.9116 134.31 35.9214C135.135 35.9409 135.777 36.1924 136.236 36.6758C136.695 37.1543 136.888 37.7915 136.815 38.5874L136.171 42.5132L136.134 43.0771C136.124 43.3457 136.153 43.6118 136.222 43.8755L136.207 44H134.859ZM132.779 42.9746C133.204 42.9844 133.605 42.8843 133.981 42.6743C134.361 42.4595 134.689 42.1641 134.962 41.7881L135.248 40.1548L134.244 40.1475C133.409 40.1475 132.77 40.2793 132.325 40.543C131.881 40.8066 131.629 41.1802 131.571 41.6636C131.527 42.0347 131.612 42.3447 131.827 42.5938C132.047 42.8379 132.364 42.9648 132.779 42.9746ZM139.594 44H138.276L140.224 32.75H141.55L139.594 44ZM153.913 42.5938C153.557 43.0967 153.037 43.4849 152.353 43.7583C151.674 44.0269 150.898 44.1562 150.024 44.1465C149.326 44.1318 148.715 43.9683 148.193 43.6558C147.67 43.3433 147.26 42.8965 146.962 42.3154C146.664 41.7295 146.494 41.0654 146.45 40.3232C146.415 39.7422 146.486 38.9561 146.662 37.9648C146.843 36.9736 147.155 36.1167 147.6 35.394C148.044 34.6714 148.598 34.1196 149.262 33.7388C149.931 33.3579 150.695 33.1748 151.555 33.1895C152.546 33.209 153.334 33.5044 153.92 34.0757C154.511 34.6421 154.848 35.4404 154.931 36.4707H153.569C153.515 35.7969 153.312 35.2793 152.961 34.918C152.609 34.5566 152.123 34.3662 151.503 34.3467C150.585 34.3125 149.816 34.6421 149.196 35.3354C148.581 36.0288 148.176 37.042 147.98 38.375L147.841 39.4004L147.819 39.957C147.819 40.9189 148.017 41.6636 148.413 42.1909C148.808 42.7134 149.362 42.9795 150.075 42.9893C151.105 43.0137 151.923 42.7598 152.529 42.2275L152.968 39.8325H150.566L150.771 38.6899H154.521L153.913 42.5938ZM160.728 44C160.694 43.8584 160.677 43.7192 160.677 43.5825L160.699 43.165C159.971 43.8389 159.2 44.166 158.384 44.1465C157.686 44.1367 157.117 43.917 156.678 43.4873C156.243 43.0527 156.045 42.5107 156.084 41.8613C156.133 41.0215 156.5 40.3672 157.183 39.8984C157.872 39.4248 158.775 39.188 159.893 39.188L161.277 39.1953L161.365 38.5654C161.414 38.0918 161.321 37.7183 161.087 37.4448C160.857 37.1665 160.511 37.0225 160.047 37.0127C159.593 37.0029 159.19 37.1152 158.838 37.3496C158.492 37.5791 158.279 37.8843 158.201 38.2651L156.868 38.2725C156.912 37.8086 157.093 37.3984 157.41 37.042C157.728 36.6807 158.135 36.4023 158.633 36.207C159.131 36.0068 159.646 35.9116 160.179 35.9214C161.004 35.9409 161.646 36.1924 162.105 36.6758C162.564 37.1543 162.757 37.7915 162.684 38.5874L162.039 42.5132L162.002 43.0771C161.993 43.3457 162.022 43.6118 162.09 43.8755L162.076 44H160.728ZM158.648 42.9746C159.073 42.9844 159.473 42.8843 159.849 42.6743C160.23 42.4595 160.557 42.1641 160.831 41.7881L161.116 40.1548L160.113 40.1475C159.278 40.1475 158.638 40.2793 158.194 40.543C157.75 40.8066 157.498 41.1802 157.439 41.6636C157.396 42.0347 157.481 42.3447 157.696 42.5938C157.916 42.8379 158.233 42.9648 158.648 42.9746ZM168.957 37.2837L168.334 37.2178C167.484 37.2178 166.816 37.6011 166.327 38.3677L165.353 44H164.027L165.404 36.0752L166.686 36.0679L166.488 36.9907C167.05 36.2534 167.712 35.8945 168.473 35.9141C168.634 35.9141 168.844 35.9507 169.103 36.0239L168.957 37.2837ZM169.407 40.0229C169.505 39.2173 169.727 38.4897 170.073 37.8403C170.42 37.1909 170.847 36.7051 171.355 36.3828C171.863 36.0605 172.422 35.9067 173.032 35.9214C173.916 35.9409 174.595 36.2632 175.069 36.8882L175.83 32.75H177.156L175.208 44H173.999L174.138 43.1504C173.513 43.834 172.742 44.166 171.824 44.1465C171.092 44.127 170.508 43.8413 170.073 43.2896C169.639 42.7329 169.404 41.9883 169.37 41.0557C169.356 40.7676 169.368 40.4233 169.407 40.0229ZM170.681 40.7847C170.667 41.4829 170.791 42.0249 171.055 42.4106C171.319 42.7964 171.704 42.9941 172.212 43.0039C172.979 43.0381 173.66 42.6523 174.256 41.8467L174.885 38.1846C174.592 37.4619 174.06 37.0908 173.289 37.0713C172.766 37.0566 172.305 37.2153 171.904 37.5474C171.509 37.8745 171.206 38.3359 170.996 38.9316C170.791 39.5225 170.686 40.1401 170.681 40.7847ZM180.88 44.1465C179.894 44.127 179.122 43.7632 178.566 43.0552C178.009 42.3472 177.775 41.4414 177.863 40.3379L177.899 40.0229C177.982 39.2368 178.214 38.519 178.595 37.8696C178.981 37.2202 179.45 36.7319 180.001 36.4048C180.553 36.0728 181.149 35.9141 181.788 35.9287C182.604 35.9482 183.243 36.2192 183.707 36.7417C184.171 37.2642 184.425 37.9722 184.469 38.8657C184.484 39.1831 184.474 39.5005 184.44 39.8179L184.359 40.4258H179.181C179.093 41.1436 179.21 41.7539 179.533 42.2568C179.86 42.7598 180.346 43.021 180.99 43.0405C181.771 43.0601 182.494 42.7085 183.158 41.9858L183.92 42.6304C183.588 43.1089 183.158 43.4849 182.631 43.7583C182.108 44.0269 181.525 44.1562 180.88 44.1465ZM181.722 37.0347C181.176 37.02 180.697 37.2056 180.287 37.5913C179.882 37.9771 179.559 38.5508 179.32 39.3125L183.173 39.3198L183.202 39.2026C183.28 38.5874 183.18 38.0771 182.902 37.6719C182.628 37.2617 182.235 37.0493 181.722 37.0347ZM188.01 36.0679L187.82 37.0713C188.533 36.29 189.343 35.9092 190.251 35.9287C190.998 35.9482 191.55 36.207 191.907 36.7051C192.263 37.2031 192.395 37.9038 192.302 38.8071L191.438 44H190.112L190.984 38.7852C191.013 38.5459 191.016 38.3237 190.991 38.1187C190.908 37.4351 190.505 37.0859 189.783 37.0713C188.987 37.0566 188.288 37.4814 187.688 38.3457L186.706 44H185.381L186.758 36.0752L188.01 36.0679Z" fill="#333333"/>
</g>
<defs>
<filter id="filter0_d_502_399" x="0" y="0" width="198" height="56" filterUnits="userSpaceOnUse" color-interpolation-filters="sRGB">
<feFlood flood-opacity="0" result="BackgroundImageFix"/>
<feColorMatrix in="SourceAlpha" type="matrix" values="0 0 0 0 0 0 0 0 0 0 0 0 0 0 0 0 0 0 127 0" result="hardAlpha"/>
<feOffset dy="4"/>
<feGaussianBlur stdDeviation="2"/>
<feComposite in2="hardAlpha" operator="out"/>
<feColorMatrix type="matrix" values="0 0 0 0 0 0 0 0 0 0 0 0 0 0 0 0 0 0 0.25 0"/>
<feBlend mode="normal" in2="BackgroundImageFix" result="effect1_dropShadow_502_399"/>
<feBlend mode="normal" in="SourceGraphic" in2="effect1_dropShadow_502_399" result="shape"/>
</filter>
</defs>
</svg>
