<svg width="221" height="48" viewBox="0 0 221 48" fill="none" xmlns="http://www.w3.org/2000/svg">
<path d="M62.2803 7.56619H64.347L68.2314 17.9276L72.1065 7.56619H74.1732L69.0433 21H67.401L62.2803 7.56619ZM61.3392 7.56619H63.3044L63.6458 16.5344V21H61.3392V7.56619ZM73.1491 7.56619H75.1236V21H72.8077V16.5344L73.1491 7.56619ZM82.2354 7.56619V21H79.9195V7.56619H82.2354ZM94.0712 17.5401C94.0712 17.2633 94.0281 17.0172 93.942 16.8019C93.862 16.5866 93.7175 16.3898 93.5083 16.2114C93.2992 16.0331 93.004 15.8608 92.6226 15.6948C92.2474 15.5225 91.7676 15.3472 91.1833 15.1688C90.5436 14.972 89.9531 14.7536 89.4118 14.5138C88.8766 14.2677 88.4091 13.9848 88.0093 13.6649C87.6095 13.3389 87.2989 12.9668 87.0775 12.5485C86.856 12.1241 86.7453 11.6351 86.7453 11.0815C86.7453 10.5341 86.8591 10.0358 87.0867 9.5868C87.3204 9.13777 87.6495 8.75026 88.0739 8.42426C88.5045 8.0921 89.0119 7.83683 89.5963 7.65845C90.1806 7.47392 90.8265 7.38166 91.5339 7.38166C92.5303 7.38166 93.3884 7.56619 94.1081 7.93525C94.8339 8.30431 95.3905 8.79947 95.7781 9.42072C96.1717 10.042 96.3686 10.7278 96.3686 11.4782H94.0712C94.0712 11.0354 93.9758 10.6448 93.7851 10.3065C93.6006 9.96201 93.3177 9.69136 92.9363 9.49453C92.5611 9.2977 92.0844 9.19928 91.5062 9.19928C90.9587 9.19928 90.5036 9.28232 90.1407 9.4484C89.7778 9.61448 89.5071 9.83899 89.3287 10.1219C89.1503 10.4049 89.0612 10.7247 89.0612 11.0815C89.0612 11.3337 89.1196 11.5643 89.2365 11.7735C89.3533 11.9765 89.5317 12.1671 89.7716 12.3455C90.0115 12.5178 90.3129 12.6808 90.6758 12.8345C91.0387 12.9883 91.4662 13.1359 91.9583 13.2774C92.7026 13.4988 93.3515 13.7449 93.9051 14.0155C94.4587 14.28 94.92 14.5814 95.2891 14.9197C95.6581 15.258 95.9349 15.6425 96.1194 16.073C96.304 16.4975 96.3962 16.9803 96.3962 17.5216C96.3962 18.0875 96.2824 18.598 96.0549 19.0532C95.8273 19.5022 95.5013 19.8867 95.0768 20.2065C94.6586 20.5202 94.1542 20.7632 93.5637 20.9354C92.9794 21.1015 92.3273 21.1845 91.6077 21.1845C90.9618 21.1845 90.3252 21.0984 89.6978 20.9262C89.0765 20.754 88.5106 20.4925 88.0001 20.1419C87.4896 19.7852 87.0836 19.3423 86.7822 18.8133C86.4808 18.2782 86.3301 17.6538 86.3301 16.9403H88.646C88.646 17.3771 88.7198 17.7492 88.8674 18.0567C89.0212 18.3643 89.2334 18.6165 89.504 18.8133C89.7747 19.004 90.0884 19.1455 90.4451 19.2377C90.808 19.33 91.1956 19.3761 91.6077 19.3761C92.149 19.3761 92.6011 19.2992 92.964 19.1455C93.333 18.9917 93.6098 18.7764 93.7944 18.4996C93.9789 18.2228 94.0712 17.903 94.0712 17.5401ZM105.861 7.56619V21H103.563V7.56619H105.861ZM110.077 7.56619V9.41149H99.3838V7.56619H110.077ZM130.206 14.1355V19.2654C130.015 19.5176 129.717 19.7944 129.311 20.0958C128.911 20.391 128.379 20.6463 127.715 20.8616C127.05 21.0769 126.223 21.1845 125.233 21.1845C124.39 21.1845 123.618 21.0431 122.917 20.7601C122.216 20.471 121.61 20.0497 121.099 19.4961C120.595 18.9425 120.204 18.269 119.928 17.4755C119.651 16.6758 119.512 15.7655 119.512 14.7444V13.8125C119.512 12.7976 119.638 11.8934 119.891 11.0999C120.149 10.3003 120.518 9.6237 120.998 9.07011C121.478 8.51652 122.056 8.09825 122.732 7.8153C123.415 7.52621 124.187 7.38166 125.048 7.38166C126.149 7.38166 127.06 7.56619 127.779 7.93525C128.505 8.29816 129.065 8.80254 129.459 9.4484C129.852 10.0943 130.101 10.8324 130.206 11.6628H127.936C127.862 11.1953 127.718 10.777 127.503 10.408C127.293 10.0389 126.992 9.7498 126.598 9.54066C126.211 9.32538 125.706 9.21774 125.085 9.21774C124.55 9.21774 124.079 9.31923 123.674 9.52221C123.268 9.72519 122.929 10.0235 122.659 10.4172C122.394 10.8108 122.194 11.2906 122.059 11.8565C121.924 12.4224 121.856 13.0683 121.856 13.7941V14.7444C121.856 15.4825 121.933 16.1376 122.087 16.7097C122.246 17.2817 122.474 17.7646 122.769 18.1582C123.071 18.5519 123.437 18.8502 123.867 19.0532C124.298 19.25 124.784 19.3485 125.325 19.3485C125.854 19.3485 126.288 19.3054 126.626 19.2193C126.964 19.127 127.232 19.0194 127.429 18.8964C127.632 18.7672 127.789 18.6442 127.899 18.5273V15.8608H125.104V14.1355H130.206ZM139.892 9.35613L135.878 21H133.452L138.508 7.56619H140.058L139.892 9.35613ZM143.25 21L139.228 9.35613L139.052 7.56619H140.612L145.686 21H143.25ZM143.057 16.0177V17.8538H135.749V16.0177H143.057ZM149.08 7.56619H153.831C154.852 7.56619 155.723 7.71996 156.442 8.02751C157.162 8.33507 157.713 8.79024 158.094 9.39304C158.481 9.98969 158.675 10.7278 158.675 11.6074C158.675 12.2779 158.552 12.8684 158.306 13.3789C158.06 13.8894 157.713 14.32 157.264 14.6706C156.815 15.0151 156.279 15.2826 155.658 15.4733L154.957 15.8147H150.685L150.667 13.9786H153.868C154.422 13.9786 154.883 13.8802 155.252 13.6834C155.621 13.4865 155.898 13.219 156.083 12.8807C156.273 12.5362 156.369 12.1487 156.369 11.7181C156.369 11.2506 156.276 10.8447 156.092 10.5002C155.913 10.1496 155.637 9.88204 155.261 9.69751C154.886 9.50683 154.41 9.41149 153.831 9.41149H151.396V21H149.08V7.56619ZM156.747 21L153.591 14.9659L156.018 14.9566L159.22 20.8801V21H156.747ZM166.774 21H163.905L163.923 19.1639H166.774C167.605 19.1639 168.3 18.9825 168.859 18.6196C169.425 18.2566 169.85 17.7369 170.133 17.0603C170.422 16.3837 170.566 15.5779 170.566 14.6429V13.914C170.566 13.1882 170.483 12.5454 170.317 11.9857C170.157 11.4259 169.917 10.9554 169.598 10.574C169.284 10.1927 168.896 9.90357 168.435 9.70674C167.98 9.50991 167.454 9.41149 166.857 9.41149H163.849V7.56619H166.857C167.749 7.56619 168.564 7.71689 169.302 8.01829C170.04 8.31354 170.677 8.74103 171.212 9.30077C171.754 9.86052 172.169 10.531 172.458 11.3122C172.747 12.0933 172.891 12.9668 172.891 13.9325V14.6429C172.891 15.6086 172.747 16.4821 172.458 17.2633C172.169 18.0444 171.754 18.7149 171.212 19.2746C170.671 19.8282 170.025 20.2557 169.275 20.5571C168.53 20.8524 167.697 21 166.774 21ZM165.187 7.56619V21H162.871V7.56619H165.187ZM185.899 19.1639V21H178.767V19.1639H185.899ZM179.422 7.56619V21H177.106V7.56619H179.422ZM184.967 13.1759V14.9843H178.767V13.1759H184.967ZM185.853 7.56619V9.41149H178.767V7.56619H185.853ZM200.337 7.56619V21H198.021L191.996 11.3767V21H189.68V7.56619H191.996L198.039 17.2079V7.56619H200.337ZM212.052 17.5401C212.052 17.2633 212.009 17.0172 211.923 16.8019C211.843 16.5866 211.699 16.3898 211.49 16.2114C211.281 16.0331 210.985 15.8608 210.604 15.6948C210.229 15.5225 209.749 15.3472 209.165 15.1688C208.525 14.972 207.934 14.7536 207.393 14.5138C206.858 14.2677 206.39 13.9848 205.991 13.6649C205.591 13.3389 205.28 12.9668 205.059 12.5485C204.837 12.1241 204.727 11.6351 204.727 11.0815C204.727 10.5341 204.84 10.0358 205.068 9.5868C205.302 9.13777 205.631 8.75026 206.055 8.42426C206.486 8.0921 206.993 7.83683 207.578 7.65845C208.162 7.47392 208.808 7.38166 209.515 7.38166C210.512 7.38166 211.37 7.56619 212.089 7.93525C212.815 8.30431 213.372 8.79947 213.759 9.42072C214.153 10.042 214.35 10.7278 214.35 11.4782H212.052C212.052 11.0354 211.957 10.6448 211.766 10.3065C211.582 9.96201 211.299 9.69136 210.918 9.49453C210.542 9.2977 210.066 9.19928 209.488 9.19928C208.94 9.19928 208.485 9.28232 208.122 9.4484C207.759 9.61448 207.488 9.83899 207.31 10.1219C207.132 10.4049 207.042 10.7247 207.042 11.0815C207.042 11.3337 207.101 11.5643 207.218 11.7735C207.335 11.9765 207.513 12.1671 207.753 12.3455C207.993 12.5178 208.294 12.6808 208.657 12.8345C209.02 12.9883 209.448 13.1359 209.94 13.2774C210.684 13.4988 211.333 13.7449 211.886 14.0155C212.44 14.28 212.901 14.5814 213.27 14.9197C213.639 15.258 213.916 15.6425 214.101 16.073C214.285 16.4975 214.378 16.9803 214.378 17.5216C214.378 18.0875 214.264 18.598 214.036 19.0532C213.809 19.5022 213.483 19.8867 213.058 20.2065C212.64 20.5202 212.136 20.7632 211.545 20.9354C210.961 21.1015 210.309 21.1845 209.589 21.1845C208.943 21.1845 208.307 21.0984 207.679 20.9262C207.058 20.754 206.492 20.4925 205.981 20.1419C205.471 19.7852 205.065 19.3423 204.764 18.8133C204.462 18.2782 204.311 17.6538 204.311 16.9403H206.627C206.627 17.3771 206.701 17.7492 206.849 18.0567C207.003 18.3643 207.215 18.6165 207.485 18.8133C207.756 19.004 208.07 19.1455 208.426 19.2377C208.789 19.33 209.177 19.3761 209.589 19.3761C210.13 19.3761 210.582 19.2992 210.945 19.1455C211.314 18.9917 211.591 18.7764 211.776 18.4996C211.96 18.2228 212.052 17.903 212.052 17.5401Z" fill="white"/>
<path d="M62.2301 28.2051H63.2771L64.8236 35.3356L68.8371 28.2051H69.9924L65.0161 36.9663H64.1557L62.2301 28.2051ZM61.851 28.2051H62.8198L62.0496 33.5846L61.4599 36.9663H60.3287L61.851 28.2051ZM69.3426 28.2051H70.3174L68.795 36.9663H67.6698L68.2715 33.4883L69.3426 28.2051ZM74.8633 35.4018L75.7178 30.4556H76.8129L75.6817 36.9663H74.6407L74.8633 35.4018ZM75.2725 34.09L75.7178 34.072C75.6656 34.4812 75.5733 34.8703 75.441 35.2393C75.3086 35.6044 75.1281 35.9293 74.8994 36.2141C74.6748 36.495 74.394 36.7156 74.057 36.876C73.724 37.0325 73.3289 37.1047 72.8716 37.0927C72.5146 37.0806 72.2157 37.0084 71.975 36.876C71.7383 36.7437 71.5518 36.5652 71.4154 36.3405C71.279 36.1159 71.1887 35.8591 71.1446 35.5703C71.1005 35.2815 71.0945 34.9766 71.1266 34.6557L71.8306 30.4556H72.9197L72.2157 34.6737C72.1997 34.8502 72.1976 35.0247 72.2097 35.1972C72.2217 35.3657 72.2578 35.5202 72.318 35.6606C72.3782 35.801 72.4704 35.9153 72.5948 36.0035C72.7232 36.0878 72.8916 36.1339 73.1002 36.1419C73.5335 36.158 73.9005 36.0778 74.2014 35.9012C74.5023 35.7207 74.741 35.472 74.9175 35.1551C75.094 34.8382 75.2123 34.4832 75.2725 34.09ZM81.4612 35.2032C81.4973 34.9545 81.4511 34.76 81.3228 34.6196C81.1984 34.4792 81.0339 34.3729 80.8293 34.3006C80.6288 34.2244 80.4322 34.1622 80.2396 34.1141C79.9989 34.0539 79.7563 33.9797 79.5115 33.8915C79.2668 33.8032 79.0422 33.6909 78.8376 33.5545C78.637 33.4141 78.4766 33.2416 78.3562 33.037C78.2399 32.8284 78.1877 32.5757 78.1998 32.2788C78.2158 31.9579 78.3001 31.6751 78.4525 31.4304C78.609 31.1857 78.8095 30.9811 79.0542 30.8166C79.3029 30.6522 79.5737 30.5298 79.8666 30.4496C80.1594 30.3693 80.4502 30.3312 80.7391 30.3352C81.1483 30.3433 81.5193 30.4275 81.8523 30.588C82.1892 30.7484 82.456 30.9791 82.6526 31.28C82.8491 31.5808 82.9414 31.9459 82.9294 32.3751L81.8523 32.3691C81.8603 32.1404 81.8142 31.9439 81.7139 31.7794C81.6136 31.6149 81.4752 31.4886 81.2987 31.4003C81.1222 31.308 80.9216 31.2599 80.697 31.2559C80.4843 31.2519 80.2757 31.286 80.0712 31.3582C79.8666 31.4264 79.6921 31.5347 79.5477 31.6831C79.4032 31.8275 79.315 32.0161 79.2829 32.2487C79.2588 32.4212 79.2849 32.5637 79.3611 32.676C79.4373 32.7843 79.5416 32.8725 79.674 32.9407C79.8104 33.0049 79.9528 33.0591 80.1012 33.1032C80.2537 33.1433 80.3921 33.1794 80.5164 33.2115C80.8454 33.3038 81.1703 33.4201 81.4912 33.5605C81.8122 33.7009 82.0729 33.8955 82.2735 34.1442C82.4741 34.3889 82.5643 34.7118 82.5443 35.113C82.5282 35.454 82.438 35.7508 82.2735 36.0035C82.113 36.2523 81.9044 36.4589 81.6477 36.6233C81.395 36.7838 81.1162 36.9021 80.8113 36.9783C80.5064 37.0546 80.2015 37.0907 79.8967 37.0867C79.4754 37.0786 79.0823 36.9924 78.7173 36.8279C78.3562 36.6594 78.0674 36.4187 77.8508 36.1058C77.6342 35.7889 77.5319 35.4038 77.5439 34.9505L78.633 34.9565C78.633 35.2173 78.6872 35.4379 78.7955 35.6184C78.9078 35.7949 79.0623 35.9293 79.2588 36.0216C79.4554 36.1139 79.68 36.162 79.9328 36.166C80.1454 36.17 80.362 36.1419 80.5826 36.0818C80.8073 36.0216 80.9998 35.9213 81.1603 35.7809C81.3248 35.6365 81.425 35.4439 81.4612 35.2032ZM86.4945 37.0867C86.0492 37.0786 85.6621 36.9904 85.3332 36.8219C85.0082 36.6494 84.7415 36.4187 84.5329 36.1299C84.3283 35.8371 84.1818 35.5041 84.0936 35.131C84.0053 34.758 83.9793 34.3668 84.0154 33.9577L84.0394 33.6989C84.0796 33.2817 84.1818 32.8725 84.3463 32.4714C84.5108 32.0662 84.7294 31.7012 85.0022 31.3762C85.279 31.0513 85.6039 30.7946 85.977 30.606C86.3541 30.4135 86.7713 30.3232 87.2286 30.3352C87.6819 30.3433 88.059 30.4395 88.3599 30.6241C88.6607 30.8086 88.8954 31.0533 89.0639 31.3582C89.2364 31.6591 89.3487 31.998 89.4009 32.3751C89.453 32.7482 89.457 33.1313 89.4129 33.5244L89.3467 34.0239H84.6231L84.7675 33.1152L88.3719 33.1213L88.3899 33.025C88.4301 32.7362 88.414 32.4573 88.3418 32.1886C88.2696 31.9198 88.1372 31.6992 87.9447 31.5267C87.7561 31.3502 87.5014 31.2579 87.1805 31.2499C86.8475 31.2378 86.5587 31.306 86.314 31.4545C86.0693 31.5989 85.8647 31.7954 85.7002 32.0442C85.5357 32.2889 85.4054 32.5576 85.3091 32.8505C85.2168 33.1393 85.1526 33.4221 85.1165 33.6989L85.0925 33.9516C85.0684 34.2084 85.0764 34.4671 85.1165 34.7279C85.1567 34.9886 85.2329 35.2273 85.3452 35.4439C85.4615 35.6565 85.622 35.831 85.8266 35.9674C86.0312 36.0998 86.2839 36.17 86.5848 36.178C86.9498 36.1861 87.2767 36.1078 87.5656 35.9434C87.8584 35.7749 88.1252 35.5623 88.3659 35.3055L88.9857 35.8351C88.7971 36.1119 88.5725 36.3445 88.3117 36.5331C88.051 36.7216 87.7662 36.862 87.4573 36.9543C87.1484 37.0465 86.8275 37.0907 86.4945 37.0867ZM94.3439 35.4018L95.1984 30.4556H96.2935L95.1623 36.9663H94.1213L94.3439 35.4018ZM94.7531 34.09L95.1984 34.072C95.1462 34.4812 95.054 34.8703 94.9216 35.2393C94.7892 35.6044 94.6087 35.9293 94.38 36.2141C94.1554 36.495 93.8746 36.7156 93.5376 36.876C93.2047 37.0325 92.8095 37.1047 92.3522 37.0927C91.9952 37.0806 91.6963 37.0084 91.4556 36.876C91.219 36.7437 91.0324 36.5652 90.896 36.3405C90.7596 36.1159 90.6694 35.8591 90.6253 35.5703C90.5811 35.2815 90.5751 34.9766 90.6072 34.6557L91.3112 30.4556H92.4004L91.6963 34.6737C91.6803 34.8502 91.6783 35.0247 91.6903 35.1972C91.7023 35.3657 91.7384 35.5202 91.7986 35.6606C91.8588 35.801 91.9511 35.9153 92.0754 36.0035C92.2038 36.0878 92.3723 36.1339 92.5809 36.1419C93.0141 36.158 93.3812 36.0778 93.682 35.9012C93.9829 35.7207 94.2216 35.472 94.3981 35.1551C94.5746 34.8382 94.6929 34.4832 94.7531 34.09ZM98.8959 31.8155L98.0053 36.9663H96.9102L98.0414 30.4556H99.0764L98.8959 31.8155ZM98.4085 33.4642L97.9151 33.4522C97.9712 33.047 98.0715 32.6559 98.2159 32.2788C98.3604 31.9018 98.5529 31.5648 98.7936 31.2679C99.0383 30.9711 99.3332 30.7384 99.6781 30.5699C100.023 30.4014 100.422 30.3232 100.876 30.3352C101.213 30.3433 101.497 30.4095 101.73 30.5338C101.963 30.6542 102.149 30.8206 102.29 31.0333C102.434 31.2419 102.53 31.4825 102.578 31.7553C102.631 32.0281 102.643 32.319 102.615 32.6278L101.886 36.9663H100.797L101.519 32.676C101.552 32.4032 101.535 32.1625 101.471 31.9539C101.411 31.7453 101.297 31.5808 101.128 31.4605C100.96 31.3361 100.731 31.2699 100.442 31.2619C100.117 31.2539 99.8346 31.3101 99.5939 31.4304C99.3572 31.5507 99.1587 31.7172 98.9982 31.9298C98.8417 32.1384 98.7154 32.3771 98.6191 32.6459C98.5228 32.9107 98.4526 33.1834 98.4085 33.4642ZM102.615 32.8505L101.832 33.0791C101.88 32.7061 101.981 32.353 102.133 32.0201C102.29 31.6871 102.492 31.3923 102.741 31.1356C102.99 30.8788 103.278 30.6782 103.607 30.5338C103.936 30.3894 104.299 30.3212 104.697 30.3292C105.05 30.3373 105.348 30.4034 105.593 30.5278C105.838 30.6481 106.032 30.8146 106.177 31.0272C106.325 31.2398 106.424 31.4886 106.472 31.7734C106.524 32.0542 106.532 32.3591 106.496 32.688L105.78 36.9663H104.685L105.407 32.67C105.439 32.3932 105.425 32.1505 105.364 31.9419C105.308 31.7333 105.196 31.5708 105.028 31.4545C104.859 31.3341 104.626 31.2719 104.33 31.2679C104.093 31.2599 103.876 31.296 103.68 31.3762C103.483 31.4565 103.313 31.5708 103.168 31.7192C103.024 31.8636 102.903 32.0321 102.807 32.2247C102.715 32.4172 102.651 32.6258 102.615 32.8505ZM113.024 32.1043L114.444 31.1717C114.689 31.0112 114.906 30.8327 115.094 30.6361C115.283 30.4395 115.393 30.1868 115.425 29.8779C115.453 29.6132 115.381 29.3986 115.209 29.2341C115.036 29.0696 114.819 28.9854 114.559 28.9814C114.33 28.9814 114.127 29.0395 113.951 29.1559C113.778 29.2722 113.638 29.4246 113.53 29.6132C113.425 29.8017 113.361 30.0043 113.337 30.2209C113.309 30.4375 113.331 30.6502 113.403 30.8588C113.476 31.0633 113.572 31.2619 113.692 31.4545C113.813 31.643 113.929 31.8235 114.041 31.996L117.285 36.9663H116.063L113.403 32.8986C113.227 32.6379 113.046 32.3691 112.862 32.0923C112.677 31.8115 112.525 31.5187 112.404 31.2138C112.288 30.9089 112.24 30.59 112.26 30.257C112.292 29.8198 112.411 29.4367 112.615 29.1077C112.824 28.7748 113.1 28.518 113.445 28.3375C113.79 28.157 114.184 28.0727 114.625 28.0848C114.966 28.0928 115.279 28.171 115.564 28.3195C115.848 28.4679 116.071 28.6765 116.231 28.9453C116.396 29.21 116.468 29.5229 116.448 29.884C116.432 30.1808 116.356 30.4476 116.219 30.6843C116.087 30.9209 115.919 31.1335 115.714 31.3221C115.509 31.5106 115.293 31.6851 115.064 31.8456L113.169 33.1393C112.996 33.2597 112.826 33.396 112.657 33.5485C112.489 33.6969 112.342 33.8634 112.218 34.0479C112.098 34.2325 112.023 34.435 111.995 34.6557C111.955 34.9605 111.989 35.2253 112.098 35.45C112.206 35.6746 112.37 35.8511 112.591 35.9795C112.812 36.1038 113.072 36.17 113.373 36.178C113.807 36.1901 114.2 36.1018 114.553 35.9133C114.91 35.7207 115.221 35.464 115.485 35.1431C115.754 34.8181 115.971 34.4631 116.135 34.078C116.3 33.6889 116.41 33.3038 116.466 32.9227H117.429C117.385 33.3238 117.303 33.6929 117.182 34.0299C117.062 34.3628 116.903 34.6797 116.707 34.9806C116.51 35.2775 116.28 35.5723 116.015 35.8651C115.979 35.9053 115.945 35.9494 115.913 35.9975C115.884 36.0417 115.852 36.0838 115.816 36.1239C115.519 36.4568 115.138 36.7036 114.673 36.864C114.212 37.0205 113.762 37.0947 113.325 37.0867C112.852 37.0746 112.425 36.9703 112.043 36.7738C111.662 36.5772 111.365 36.3004 111.153 35.9434C110.94 35.5823 110.852 35.1531 110.888 34.6557C110.92 34.2425 111.047 33.8834 111.267 33.5786C111.492 33.2697 111.763 32.9969 112.08 32.7602C112.396 32.5235 112.711 32.3049 113.024 32.1043ZM125.372 32.8685H123.151L123.302 31.9359L125.197 31.9419C125.506 31.9419 125.797 31.8877 126.07 31.7794C126.346 31.6711 126.577 31.5086 126.762 31.292C126.95 31.0754 127.064 30.8026 127.104 30.4736C127.145 30.1607 127.113 29.91 127.008 29.7215C126.904 29.5289 126.743 29.3905 126.527 29.3063C126.314 29.218 126.064 29.1699 125.775 29.1619L124.054 29.1559L122.7 36.9663H121.563L123.085 28.2051L125.799 28.2111C126.164 28.2192 126.501 28.2693 126.81 28.3616C127.123 28.4498 127.391 28.5862 127.616 28.7708C127.841 28.9513 128.009 29.1839 128.121 29.4688C128.238 29.7536 128.28 30.0946 128.248 30.4917C128.216 30.9209 128.079 31.282 127.839 31.5748C127.602 31.8677 127.303 32.0983 126.942 32.2668C126.585 32.4313 126.214 32.5396 125.829 32.5917L125.372 32.8685ZM124.619 36.9663H121.96L122.76 36.0216L124.649 36.0276C124.99 36.0276 125.305 35.9654 125.594 35.8411C125.883 35.7167 126.122 35.5342 126.31 35.2935C126.503 35.0528 126.621 34.756 126.665 34.4029C126.701 34.09 126.677 33.8213 126.593 33.5966C126.509 33.372 126.364 33.1995 126.16 33.0791C125.955 32.9548 125.694 32.8866 125.378 32.8745L123.699 32.8685L123.873 31.9359L126.009 31.9419L126.196 32.2788C126.557 32.335 126.86 32.4634 127.104 32.6639C127.353 32.8605 127.534 33.1092 127.646 33.4101C127.762 33.7069 127.809 34.0339 127.784 34.3909C127.74 34.9646 127.568 35.4439 127.267 35.829C126.97 36.2101 126.589 36.497 126.124 36.6895C125.658 36.8781 125.157 36.9703 124.619 36.9663ZM129.256 33.8193L129.274 33.6809C129.322 33.2436 129.43 32.8224 129.599 32.4172C129.771 32.0121 129.998 31.651 130.279 31.3341C130.559 31.0172 130.892 30.7685 131.277 30.588C131.662 30.4075 132.092 30.3232 132.565 30.3352C133.022 30.3433 133.414 30.4416 133.738 30.6301C134.067 30.8186 134.332 31.0694 134.533 31.3823C134.737 31.6911 134.88 32.0401 134.96 32.4293C135.04 32.8184 135.06 33.2195 135.02 33.6327L135.008 33.7711C134.956 34.2084 134.844 34.6276 134.671 35.0287C134.499 35.4299 134.27 35.7869 133.985 36.0998C133.704 36.4127 133.371 36.6594 132.986 36.8399C132.601 37.0165 132.174 37.0987 131.705 37.0867C131.251 37.0786 130.86 36.9824 130.531 36.7978C130.206 36.6093 129.944 36.3606 129.743 36.0517C129.542 35.7428 129.402 35.3958 129.322 35.0107C129.242 34.6256 129.219 34.2284 129.256 33.8193ZM130.357 33.6809L130.345 33.8253C130.317 34.078 130.315 34.3408 130.339 34.6135C130.367 34.8863 130.431 35.1391 130.531 35.3717C130.636 35.6044 130.786 35.7949 130.983 35.9434C131.179 36.0918 131.434 36.17 131.747 36.178C132.08 36.1861 132.373 36.1219 132.625 35.9855C132.878 35.8451 133.093 35.6565 133.269 35.4199C133.45 35.1832 133.592 34.9204 133.696 34.6316C133.805 34.3428 133.877 34.0559 133.913 33.7711L133.925 33.6327C133.953 33.38 133.953 33.1172 133.925 32.8445C133.901 32.5677 133.837 32.3109 133.732 32.0742C133.632 31.8336 133.484 31.639 133.287 31.4906C133.091 31.3381 132.836 31.2579 132.523 31.2499C132.19 31.2378 131.895 31.304 131.638 31.4484C131.386 31.5889 131.171 31.7794 130.995 32.0201C130.818 32.2608 130.676 32.5276 130.567 32.8204C130.463 33.1092 130.393 33.396 130.357 33.6809ZM139.704 30.4556L139.554 31.3101H136.13L136.281 30.4556H139.704ZM137.713 28.873H138.796L137.695 35.3657C137.683 35.5061 137.687 35.6325 137.707 35.7448C137.727 35.8571 137.775 35.9474 137.851 36.0156C137.927 36.0798 138.044 36.1139 138.2 36.1179C138.288 36.1179 138.375 36.1119 138.459 36.0998C138.547 36.0838 138.635 36.0697 138.724 36.0577L138.645 36.9723C138.517 37.0084 138.385 37.0345 138.248 37.0506C138.116 37.0706 137.984 37.0786 137.851 37.0746C137.518 37.0706 137.257 36.9864 137.069 36.8219C136.88 36.6574 136.752 36.4448 136.684 36.1841C136.616 35.9233 136.596 35.6445 136.624 35.3477L137.713 28.873ZM143.889 35.8531L144.431 32.4894C144.459 32.2407 144.435 32.0221 144.359 31.8336C144.287 31.645 144.164 31.4986 143.992 31.3943C143.823 31.29 143.611 31.2338 143.354 31.2258C143.129 31.2218 142.909 31.2579 142.692 31.3341C142.479 31.4103 142.295 31.5247 142.138 31.6771C141.982 31.8295 141.88 32.0221 141.831 32.2548L140.748 32.2608C140.776 31.9359 140.879 31.653 141.055 31.4123C141.232 31.1676 141.452 30.9651 141.717 30.8046C141.982 30.6401 142.267 30.5198 142.572 30.4436C142.876 30.3633 143.173 30.3252 143.462 30.3292C143.899 30.3373 144.278 30.4315 144.599 30.612C144.924 30.7886 145.169 31.0373 145.334 31.3582C145.498 31.6791 145.558 32.0642 145.514 32.5135L145.015 35.5462C144.979 35.7669 144.956 35.9895 144.948 36.2141C144.944 36.4348 144.97 36.6514 145.027 36.864L145.015 36.9663L143.913 36.9723C143.869 36.7878 143.847 36.6013 143.847 36.4127C143.851 36.2242 143.865 36.0376 143.889 35.8531ZM144.557 33.019L144.431 33.8012L143.402 33.7952C143.185 33.7952 142.957 33.8112 142.716 33.8433C142.475 33.8754 142.247 33.9356 142.03 34.0239C141.813 34.1121 141.631 34.2405 141.482 34.409C141.334 34.5734 141.244 34.788 141.212 35.0528C141.188 35.2694 141.214 35.458 141.29 35.6184C141.37 35.7749 141.49 35.8972 141.651 35.9855C141.811 36.0737 141.998 36.1199 142.211 36.1239C142.487 36.1279 142.76 36.0737 143.029 35.9614C143.298 35.8491 143.532 35.6886 143.733 35.48C143.934 35.2714 144.072 35.0307 144.148 34.758L144.545 35.2935C144.469 35.5583 144.345 35.803 144.172 36.0276C144 36.2482 143.795 36.4388 143.558 36.5993C143.326 36.7597 143.075 36.8841 142.806 36.9723C142.537 37.0606 142.269 37.1027 142 37.0987C141.635 37.0907 141.304 37.0084 141.007 36.852C140.714 36.6955 140.482 36.4769 140.309 36.1961C140.141 35.9113 140.068 35.5803 140.092 35.2032C140.117 34.7901 140.225 34.4431 140.417 34.1622C140.61 33.8814 140.857 33.6568 141.158 33.4883C141.462 33.3198 141.795 33.1995 142.156 33.1273C142.517 33.0511 142.874 33.0129 143.227 33.0129L144.557 33.019ZM148.556 31.9118L147.677 36.9663H146.588L147.719 30.4556H148.748L148.556 31.9118ZM148.05 33.4642L147.605 33.4522C147.661 33.0631 147.763 32.682 147.912 32.3089C148.064 31.9318 148.263 31.5929 148.508 31.292C148.756 30.9911 149.051 30.7545 149.392 30.582C149.737 30.4055 150.13 30.3232 150.571 30.3352C150.92 30.3433 151.211 30.4115 151.444 30.5398C151.681 30.6642 151.865 30.8347 151.998 31.0513C152.13 31.2679 152.218 31.5187 152.262 31.8035C152.306 32.0843 152.31 32.3831 152.274 32.7L151.564 36.9663H150.469L151.191 32.682C151.219 32.4212 151.209 32.1866 151.161 31.978C151.117 31.7654 151.017 31.5969 150.86 31.4725C150.708 31.3441 150.487 31.276 150.198 31.2679C149.894 31.2599 149.619 31.3181 149.374 31.4424C149.129 31.5668 148.915 31.7373 148.73 31.9539C148.55 32.1665 148.401 32.4052 148.285 32.67C148.173 32.9307 148.094 33.1955 148.05 33.4642ZM155.629 30.4556L154.498 36.9663H153.408L154.54 30.4556H155.629ZM154.756 28.7467C154.756 28.5581 154.815 28.4017 154.931 28.2773C155.051 28.149 155.206 28.0828 155.394 28.0788C155.583 28.0748 155.737 28.1329 155.858 28.2533C155.982 28.3736 156.042 28.526 156.038 28.7106C156.038 28.8951 155.976 29.0496 155.852 29.1739C155.731 29.2943 155.579 29.3564 155.394 29.3604C155.21 29.3645 155.057 29.3103 154.937 29.198C154.817 29.0816 154.756 28.9312 154.756 28.7467ZM159.068 36.178C159.332 36.1821 159.579 36.1319 159.808 36.0276C160.036 35.9233 160.231 35.7749 160.391 35.5823C160.552 35.3898 160.666 35.1671 160.734 34.9144L161.769 34.9084C161.705 35.3457 161.535 35.7288 161.258 36.0577C160.985 36.3866 160.65 36.6434 160.253 36.8279C159.86 37.0084 159.449 37.0947 159.02 37.0867C158.562 37.0786 158.173 36.9844 157.852 36.8038C157.535 36.6193 157.281 36.3746 157.088 36.0697C156.895 35.7649 156.763 35.4219 156.691 35.0408C156.619 34.6557 156.603 34.2605 156.643 33.8554L156.667 33.5966C156.715 33.1594 156.821 32.7442 156.986 32.351C157.15 31.9539 157.369 31.6029 157.642 31.298C157.918 30.9891 158.245 30.7484 158.622 30.5759C158.999 30.4034 159.423 30.3232 159.892 30.3352C160.349 30.3433 160.746 30.4516 161.083 30.6602C161.42 30.8648 161.681 31.1436 161.866 31.4966C162.05 31.8496 162.142 32.2508 162.142 32.7L161.12 32.694C161.116 32.4373 161.065 32.2006 160.969 31.984C160.873 31.7674 160.73 31.5929 160.542 31.4605C160.353 31.3281 160.121 31.2559 159.844 31.2439C159.511 31.2358 159.22 31.298 158.971 31.4304C158.727 31.5628 158.518 31.7453 158.346 31.978C158.177 32.2066 158.043 32.4614 157.942 32.7422C157.846 33.023 157.78 33.3078 157.744 33.5966L157.714 33.8493C157.69 34.1061 157.686 34.3688 157.702 34.6376C157.722 34.9064 157.778 35.1571 157.87 35.3898C157.962 35.6184 158.105 35.805 158.297 35.9494C158.49 36.0938 158.747 36.17 159.068 36.178ZM166.67 35.8531L167.212 32.4894C167.24 32.2407 167.216 32.0221 167.14 31.8336C167.068 31.645 166.945 31.4986 166.773 31.3943C166.604 31.29 166.392 31.2338 166.135 31.2258C165.91 31.2218 165.69 31.2579 165.473 31.3341C165.26 31.4103 165.076 31.5247 164.919 31.6771C164.763 31.8295 164.661 32.0221 164.612 32.2548L163.529 32.2608C163.557 31.9359 163.66 31.653 163.836 31.4123C164.013 31.1676 164.233 30.9651 164.498 30.8046C164.763 30.6401 165.048 30.5198 165.353 30.4436C165.657 30.3633 165.954 30.3252 166.243 30.3292C166.68 30.3373 167.059 30.4315 167.38 30.612C167.705 30.7886 167.95 31.0373 168.115 31.3582C168.279 31.6791 168.339 32.0642 168.295 32.5135L167.796 35.5462C167.76 35.7669 167.737 35.9895 167.729 36.2141C167.725 36.4348 167.751 36.6514 167.808 36.864L167.796 36.9663L166.694 36.9723C166.65 36.7878 166.628 36.6013 166.628 36.4127C166.632 36.2242 166.646 36.0376 166.67 35.8531ZM167.338 33.019L167.212 33.8012L166.183 33.7952C165.966 33.7952 165.738 33.8112 165.497 33.8433C165.256 33.8754 165.028 33.9356 164.811 34.0239C164.594 34.1121 164.412 34.2405 164.263 34.409C164.115 34.5734 164.025 34.788 163.993 35.0528C163.969 35.2694 163.995 35.458 164.071 35.6184C164.151 35.7749 164.271 35.8972 164.432 35.9855C164.592 36.0737 164.779 36.1199 164.992 36.1239C165.268 36.1279 165.541 36.0737 165.81 35.9614C166.079 35.8491 166.313 35.6886 166.514 35.48C166.715 35.2714 166.853 35.0307 166.929 34.758L167.326 35.2935C167.25 35.5583 167.126 35.803 166.953 36.0276C166.781 36.2482 166.576 36.4388 166.339 36.5993C166.107 36.7597 165.856 36.8841 165.587 36.9723C165.318 37.0606 165.05 37.1027 164.781 37.0987C164.416 37.0907 164.085 37.0084 163.788 36.852C163.495 36.6955 163.263 36.4769 163.09 36.1961C162.922 35.9113 162.849 35.5803 162.873 35.2032C162.898 34.7901 163.006 34.4431 163.198 34.1622C163.391 33.8814 163.638 33.6568 163.939 33.4883C164.243 33.3198 164.576 33.1995 164.937 33.1273C165.298 33.0511 165.655 33.0129 166.008 33.0129L167.338 33.019ZM172.155 27.7237L170.548 36.9663H169.459L171.06 27.7237H172.155ZM182.769 32.6038L182.252 35.811C182.015 36.1399 181.72 36.3987 181.367 36.5872C181.018 36.7717 180.643 36.9021 180.242 36.9783C179.841 37.0546 179.45 37.0907 179.069 37.0867C178.487 37.0786 177.996 36.9543 177.594 36.7136C177.197 36.4729 176.882 36.154 176.65 35.7568C176.417 35.3597 176.261 34.9164 176.18 34.427C176.104 33.9376 176.1 33.4362 176.168 32.9227L176.265 32.2427C176.345 31.6932 176.485 31.1676 176.686 30.6662C176.89 30.1607 177.159 29.7135 177.492 29.3243C177.829 28.9312 178.232 28.6243 178.702 28.4037C179.171 28.1791 179.712 28.0727 180.326 28.0848C180.884 28.0968 181.361 28.2132 181.758 28.4338C182.16 28.6544 182.472 28.9633 182.697 29.3604C182.926 29.7576 183.06 30.2289 183.1 30.7745H181.981C181.953 30.4295 181.873 30.1287 181.74 29.8719C181.612 29.6152 181.425 29.4146 181.181 29.2702C180.94 29.1258 180.639 29.0475 180.278 29.0355C179.821 29.0195 179.424 29.1037 179.087 29.2882C178.754 29.4688 178.473 29.7155 178.244 30.0284C178.02 30.3373 177.839 30.6843 177.703 31.0694C177.566 31.4505 177.468 31.8376 177.408 32.2307L177.306 32.9287C177.261 33.2697 177.249 33.6267 177.269 33.9998C177.294 34.3688 177.368 34.7138 177.492 35.0348C177.62 35.3557 177.815 35.6184 178.076 35.823C178.337 36.0236 178.682 36.1279 179.111 36.1359C179.355 36.1399 179.596 36.1239 179.833 36.0878C180.074 36.0517 180.302 35.9875 180.519 35.8952C180.735 35.803 180.938 35.6726 181.127 35.5041L181.482 33.5425H179.508L179.676 32.6038H182.769ZM187.767 35.8531L188.308 32.4894C188.336 32.2407 188.312 32.0221 188.236 31.8336C188.164 31.645 188.041 31.4986 187.869 31.3943C187.7 31.29 187.488 31.2338 187.231 31.2258C187.006 31.2218 186.786 31.2579 186.569 31.3341C186.356 31.4103 186.172 31.5247 186.015 31.6771C185.859 31.8295 185.757 32.0221 185.709 32.2548L184.626 32.2608C184.654 31.9359 184.756 31.653 184.932 31.4123C185.109 31.1676 185.33 30.9651 185.594 30.8046C185.859 30.6401 186.144 30.5198 186.449 30.4436C186.754 30.3633 187.05 30.3252 187.339 30.3292C187.777 30.3373 188.156 30.4315 188.477 30.612C188.802 30.7886 189.046 31.0373 189.211 31.3582C189.375 31.6791 189.435 32.0642 189.391 32.5135L188.892 35.5462C188.856 35.7669 188.834 35.9895 188.826 36.2141C188.822 36.4348 188.848 36.6514 188.904 36.864L188.892 36.9663L187.791 36.9723C187.746 36.7878 187.724 36.6013 187.724 36.4127C187.728 36.2242 187.742 36.0376 187.767 35.8531ZM188.434 33.019L188.308 33.8012L187.279 33.7952C187.063 33.7952 186.834 33.8112 186.593 33.8433C186.352 33.8754 186.124 33.9356 185.907 34.0239C185.691 34.1121 185.508 34.2405 185.36 34.409C185.211 34.5734 185.121 34.788 185.089 35.0528C185.065 35.2694 185.091 35.458 185.167 35.6184C185.247 35.7749 185.368 35.8972 185.528 35.9855C185.689 36.0737 185.875 36.1199 186.088 36.1239C186.364 36.1279 186.637 36.0737 186.906 35.9614C187.175 35.8491 187.41 35.6886 187.61 35.48C187.811 35.2714 187.949 35.0307 188.025 34.758L188.422 35.2935C188.346 35.5583 188.222 35.803 188.049 36.0276C187.877 36.2482 187.672 36.4388 187.436 36.5993C187.203 36.7597 186.952 36.8841 186.683 36.9723C186.415 37.0606 186.146 37.1027 185.877 37.0987C185.512 37.0907 185.181 37.0084 184.884 36.852C184.591 36.6955 184.359 36.4769 184.186 36.1961C184.018 35.9113 183.946 35.5803 183.97 35.2032C183.994 34.7901 184.102 34.4431 184.295 34.1622C184.487 33.8814 184.734 33.6568 185.035 33.4883C185.34 33.3198 185.673 33.1995 186.034 33.1273C186.395 33.0511 186.752 33.0129 187.105 33.0129L188.434 33.019ZM192.499 31.5267L191.554 36.9663H190.465L191.596 30.4556H192.655L192.499 31.5267ZM194.611 30.4014L194.509 31.4484C194.425 31.4324 194.338 31.4184 194.25 31.4063C194.166 31.3943 194.082 31.3883 193.997 31.3883C193.737 31.3843 193.502 31.4244 193.293 31.5086C193.089 31.5889 192.906 31.7032 192.746 31.8516C192.589 32 192.455 32.1745 192.343 32.3751C192.234 32.5757 192.148 32.7923 192.084 33.025L191.741 33.2055C191.785 32.8806 191.857 32.5476 191.957 32.2066C192.062 31.8656 192.204 31.5507 192.385 31.2619C192.569 30.9731 192.8 30.7404 193.077 30.5639C193.357 30.3874 193.694 30.3052 194.088 30.3172C194.176 30.3172 194.262 30.3252 194.346 30.3413C194.435 30.3573 194.523 30.3774 194.611 30.4014ZM198.736 35.6365L200.108 27.7237H201.203L199.596 36.9663H198.603L198.736 35.6365ZM194.813 33.8313L194.825 33.7049C194.877 33.3038 194.973 32.9026 195.113 32.5015C195.258 32.1003 195.452 31.7333 195.697 31.4003C195.942 31.0674 196.239 30.8026 196.588 30.606C196.937 30.4095 197.344 30.3172 197.809 30.3292C198.226 30.3413 198.575 30.4395 198.856 30.6241C199.137 30.8086 199.358 31.0533 199.518 31.3582C199.683 31.6591 199.793 31.99 199.849 32.351C199.909 32.7121 199.927 33.0751 199.903 33.4402L199.837 33.9938C199.769 34.3829 199.656 34.764 199.5 35.1371C199.344 35.5101 199.141 35.8471 198.892 36.148C198.648 36.4448 198.353 36.6795 198.008 36.852C197.667 37.0245 197.276 37.1047 196.834 37.0927C196.409 37.0766 196.056 36.9663 195.775 36.7617C195.499 36.5571 195.282 36.2944 195.125 35.9735C194.973 35.6485 194.873 35.2995 194.825 34.9264C194.78 34.5494 194.776 34.1843 194.813 33.8313ZM195.932 33.6929L195.92 33.8193C195.892 34.06 195.882 34.3147 195.89 34.5835C195.902 34.8482 195.948 35.0989 196.028 35.3356C196.108 35.5683 196.239 35.7608 196.419 35.9133C196.6 36.0617 196.844 36.1419 197.153 36.154C197.482 36.162 197.787 36.0878 198.068 35.9313C198.349 35.7749 198.589 35.5663 198.79 35.3055C198.991 35.0448 199.135 34.762 199.223 34.4571L199.458 32.9949C199.47 32.7743 199.444 32.5637 199.38 32.3631C199.315 32.1585 199.219 31.976 199.091 31.8155C198.966 31.655 198.812 31.5267 198.628 31.4304C198.447 31.3301 198.244 31.278 198.02 31.2739C197.683 31.2619 197.392 31.3281 197.147 31.4725C196.903 31.6129 196.696 31.8035 196.527 32.0442C196.363 32.2808 196.233 32.5436 196.136 32.8324C196.04 33.1213 195.972 33.4081 195.932 33.6929ZM204.142 37.0867C203.697 37.0786 203.31 36.9904 202.981 36.8219C202.656 36.6494 202.389 36.4187 202.181 36.1299C201.976 35.8371 201.83 35.5041 201.741 35.131C201.653 34.758 201.627 34.3668 201.663 33.9577L201.687 33.6989C201.727 33.2817 201.83 32.8725 201.994 32.4714C202.159 32.0662 202.377 31.7012 202.65 31.3762C202.927 31.0513 203.252 30.7946 203.625 30.606C204.002 30.4135 204.419 30.3232 204.876 30.3352C205.33 30.3433 205.707 30.4395 206.008 30.6241C206.308 30.8086 206.543 31.0533 206.712 31.3582C206.884 31.6591 206.996 31.998 207.049 32.3751C207.101 32.7482 207.105 33.1313 207.061 33.5244L206.994 34.0239H202.271L202.415 33.1152L206.02 33.1213L206.038 33.025C206.078 32.7362 206.062 32.4573 205.99 32.1886C205.917 31.9198 205.785 31.6992 205.592 31.5267C205.404 31.3502 205.149 31.2579 204.828 31.2499C204.495 31.2378 204.206 31.306 203.962 31.4545C203.717 31.5989 203.512 31.7954 203.348 32.0442C203.183 32.2889 203.053 32.5576 202.957 32.8505C202.865 33.1393 202.8 33.4221 202.764 33.6989L202.74 33.9516C202.716 34.2084 202.724 34.4671 202.764 34.7279C202.804 34.9886 202.881 35.2273 202.993 35.4439C203.109 35.6565 203.27 35.831 203.474 35.9674C203.679 36.0998 203.932 36.17 204.232 36.178C204.598 36.1861 204.924 36.1078 205.213 35.9434C205.506 35.7749 205.773 35.5623 206.014 35.3055L206.633 35.8351C206.445 36.1119 206.22 36.3445 205.959 36.5331C205.699 36.7216 205.414 36.862 205.105 36.9543C204.796 37.0465 204.475 37.0907 204.142 37.0867ZM209.819 31.9118L208.941 36.9663H207.852L208.983 30.4556H210.012L209.819 31.9118ZM209.314 33.4642L208.869 33.4522C208.925 33.0631 209.027 32.682 209.176 32.3089C209.328 31.9318 209.527 31.5929 209.771 31.292C210.02 30.9911 210.315 30.7545 210.656 30.582C211.001 30.4055 211.394 30.3232 211.835 30.3352C212.184 30.3433 212.475 30.4115 212.708 30.5398C212.944 30.6642 213.129 30.8347 213.261 31.0513C213.394 31.2679 213.482 31.5187 213.526 31.8035C213.57 32.0843 213.574 32.3831 213.538 32.7L212.828 36.9663H211.733L212.455 32.682C212.483 32.4212 212.473 32.1866 212.425 31.978C212.381 31.7654 212.281 31.5969 212.124 31.4725C211.972 31.3441 211.751 31.276 211.462 31.2679C211.157 31.2599 210.882 31.3181 210.638 31.4424C210.393 31.5668 210.178 31.7373 209.994 31.9539C209.813 32.1665 209.665 32.4052 209.549 32.67C209.436 32.9307 209.358 33.1955 209.314 33.4642Z" fill="white"/>
<path fill-rule="evenodd" clip-rule="evenodd" d="M24 48C37.2548 48 48 37.2548 48 24C48 10.7452 37.2548 0 24 0C10.7452 0 0 10.7452 0 24C0 30.8612 2.87918 37.05 7.49526 41.424C8.08984 41.0512 8.68027 40.6742 9.26615 40.293C9.3248 39.9639 9.39513 39.5653 9.47378 39.1119C9.5149 38.8804 9.5591 38.6352 9.61087 38.3794C9.65099 38.1735 9.69699 37.9618 9.74472 37.742L9.76469 37.6501C9.96246 36.7464 10.1699 35.731 10.3397 34.6667H10.2671C8.37285 34.7017 6.63539 34.1901 5.6319 33.0602C5.17355 32.5455 4.84917 31.9014 4.75323 31.1294C4.65121 30.304 4.80959 29.331 5.28012 28.2057L5.35317 27.9971L5.67298 28.0671C6.89574 28.3047 8.46113 28.6214 9.52705 30.004C10.0181 30.6397 10.4037 31.5041 10.5955 32.6987C10.6133 32.515 10.6293 32.3309 10.6433 32.1469C10.7258 31.0638 10.7451 29.9829 10.6567 28.966C8.59509 28.1532 6.94127 25.7411 6.4609 23.1094C6.27513 22.0907 6.25835 21.0385 6.47001 20.0532C6.79283 18.5503 7.61516 17.1997 9.01 16.2921L9.15619 16.1885L9.38613 16.3819C11.1982 17.8605 12.1072 19.9558 12.3539 22.2231C12.5869 24.3793 12.2123 26.6909 11.4449 28.774L11.3249 29.0857C11.4751 30.0761 11.5325 31.1275 11.5234 32.1849C11.5051 34.1995 11.2585 36.2324 10.9494 37.8906C10.9022 38.1495 10.8503 38.3993 10.794 38.6384C10.7316 38.8987 10.6647 39.1454 10.5961 39.3769L10.5819 39.4243C14.6626 36.6908 18.5016 33.7437 21.9554 30.5686C21.946 30.4399 21.9314 30.1898 21.9284 29.8475C21.9269 29.6846 21.9269 29.5049 21.9421 29.3069C21.957 29.1336 21.9831 28.9495 22.0105 28.7561C22.0282 28.6318 22.0463 28.5036 22.0624 28.372C22.1223 27.8919 22.1837 27.3759 22.2165 26.8523C20.9644 26.0101 19.901 24.8183 19.2086 23.5555C18.8706 22.9403 18.6209 22.3084 18.4747 21.7023C18.3178 21.0491 18.2661 20.4247 18.3483 19.8765C18.5051 18.8228 19.0549 18.0233 20.0934 17.7629C20.832 17.4812 21.6177 17.7554 22.3029 18.4102C22.9912 19.068 23.5729 20.1248 23.882 21.3384C24.3153 23.0507 24.1847 25.0613 23.0917 26.7086C23.1213 26.9646 23.1438 27.2213 23.1603 27.4751C23.1893 27.8984 23.2029 28.3095 23.1938 28.6933C23.1867 28.963 23.1784 29.2171 23.148 29.4481C25.3876 27.2974 27.4489 25.0448 29.2893 22.6859C29.7847 22.0523 30.1914 21.46 30.5528 20.8502L30.3927 20.545C29.5217 18.9324 29.0024 16.825 29.0283 14.8454C29.0405 13.9546 29.1623 13.0896 29.4029 12.313C29.6511 11.5136 30.0135 10.8009 30.5069 10.2482C31.2789 9.38021 32.3312 8.86713 33.6925 8.96001C34.559 8.94174 35.1574 9.45486 35.5046 10.2985C35.9964 11.4923 35.9476 13.4048 35.4284 15.2763C34.7874 17.5828 33.4125 19.7875 31.5636 20.6094C31.1214 21.488 30.6188 22.3009 29.9579 23.1929C29.6087 23.6639 29.2512 24.131 28.8855 24.5945C29.0906 24.499 29.3036 24.406 29.5231 24.3155C29.8721 24.1723 30.236 24.0377 30.6103 23.9185C31.3075 22.5581 32.5348 21.351 33.9019 20.5661C34.5308 20.2053 35.1886 19.9343 35.8266 19.7744C36.4996 19.6054 37.1514 19.5475 37.7285 19.6327C38.8005 19.7911 39.6334 20.3546 39.9197 21.4433C40.2197 22.2199 40.2151 22.864 40.0141 23.3909C39.6928 24.2391 38.8279 24.7994 37.7057 25.1116C35.5327 25.7177 32.3837 25.3765 30.8259 24.7415L30.8256 24.7414C30.7595 24.7737 30.6938 24.8063 30.6286 24.8393C29.9478 25.1844 29.3387 25.5914 28.7974 25.9533C28.6243 26.0689 28.4582 26.18 28.2989 26.2829C28.014 26.4673 27.7498 26.6178 27.5223 26.7474L27.5223 26.7474L27.5222 26.7474L27.5116 26.7535C27.1163 26.9769 26.8404 27.117 26.7417 27.1661C24.1983 30.06 21.3426 32.7997 18.2555 35.3886C18.3518 35.3749 18.4521 35.3619 18.5563 35.3503C18.7243 35.3317 18.9009 35.3148 19.0844 35.2972C19.7144 35.2368 20.4261 35.1686 21.1525 35C21.3675 34.9498 21.5837 34.8942 21.7994 34.8319L21.8827 34.6502C22.8725 32.4193 24.6388 31.163 26.6275 30.595C27.4376 30.3651 28.2843 30.2479 29.1248 30.2342C30.4252 30.2144 31.7013 30.4322 32.8069 30.7352L33.1098 30.8052L32.9743 31.1737C32.0531 33.8294 30.3765 35.1572 28.5674 35.7298C26.3876 36.4192 23.9929 35.9881 22.4192 35.3969C21.8453 35.6873 21.251 35.9184 20.6713 36.1024C20.1978 36.2532 19.7394 36.3735 19.3069 36.4557C18.9765 36.5197 18.6644 36.573 18.3781 36.5897C18.0812 36.605 17.8177 36.5897 17.5939 36.5699C17.2871 36.5421 17.0611 36.5042 16.9311 36.4787C14.3234 38.5859 11.5651 40.5901 8.70176 42.4931C12.855 45.9327 18.1861 48 24 48ZM10.9601 27.4187C11.4983 25.7553 11.7613 23.9788 11.6291 22.2901C11.4722 20.2801 10.7596 18.3965 9.27646 16.991C8.24404 17.8498 7.71414 19.0117 7.50705 20.2497C7.36086 21.1177 7.37604 22.0267 7.53289 22.916C7.897 24.9851 8.99603 26.9555 10.5112 27.8619C10.3961 27.229 10.2272 26.6338 9.99156 26.0939C9.94283 25.9934 9.98548 25.8716 10.086 25.8229C10.188 25.7742 10.3099 25.8168 10.3586 25.9173C10.6014 26.3768 10.8001 26.8812 10.9601 27.4187ZM22.4416 24.1494C22.5801 24.4412 22.695 24.7624 22.7897 25.1018C23.2784 23.9467 23.3198 22.6613 23.0901 21.518C22.8298 20.2222 22.2329 19.0969 21.4974 18.5457C21.1091 18.2548 20.6873 18.1239 20.2655 18.2579C19.6868 18.5228 19.4219 19.0101 19.3366 19.6024C19.2605 20.1339 19.3625 20.7445 19.568 21.3993C19.731 21.9139 19.9655 22.4485 20.2579 22.9799C20.7532 23.8808 21.4185 24.773 22.2255 25.4934C22.2019 25.0695 22.1485 24.6648 22.0472 24.2971C22.0076 24.1889 22.0624 24.0672 22.1705 24.026C22.2801 23.9865 22.4005 24.0413 22.4416 24.1494ZM24.1097 34.2798C23.9019 34.4599 23.6841 34.6272 23.4588 34.7826C24.8344 35.2304 26.6524 35.4928 28.3558 35.0172C29.9258 34.5771 31.3891 33.5035 32.3225 31.3762C31.1439 31.1935 29.8055 31.1707 28.4853 31.3413C27.5884 31.457 26.696 31.658 25.8707 32.0249C24.7991 32.5015 23.8372 33.2353 23.1337 34.3375C23.3823 34.2205 23.6248 34.0894 23.8585 33.9417C23.9513 33.8731 24.0838 33.893 24.1523 33.9859C24.2224 34.0788 24.2026 34.2097 24.1097 34.2798ZM32.2973 24.1334C33.8061 24.5482 35.9296 24.7383 37.5199 24.3791C38.9665 24.0502 39.9562 23.2447 39.4248 21.6199C39.1416 21.0032 38.6299 20.7154 38.0163 20.6226C37.4559 20.5373 36.8133 20.6454 36.1372 20.8647C35.5966 21.0383 35.0424 21.291 34.4987 21.6047C33.6284 22.1059 32.7915 22.7646 32.1561 23.5391C32.5886 23.4666 33.0265 23.4235 33.464 23.4186C33.5797 23.4095 33.6817 23.4947 33.6908 23.6105C33.7 23.7262 33.6147 23.8282 33.499 23.8373C33.0915 23.902 32.6899 24.0044 32.2973 24.1334ZM32.9957 17.1385C32.7578 17.7985 32.5365 18.3895 32.3154 18.9355C33.3752 18.0202 34.169 16.5441 34.6488 15.0434C35.1878 13.3592 35.3325 11.6248 34.932 10.5208C34.7081 9.9071 34.3138 9.49902 33.6925 9.48532C32.7758 9.55079 32.0875 9.92841 31.5591 10.4857C31.0399 11.0339 30.7079 11.7771 30.4947 12.6207C30.3196 13.3151 30.2358 14.0749 30.2252 14.8606C30.2069 16.4976 30.5176 18.2381 31.1465 19.6527C31.1675 19.6446 31.1885 19.6363 31.2094 19.6278C31.5967 18.8338 31.9586 17.9598 32.3715 16.904C32.4354 16.7304 32.6288 16.6436 32.8008 16.7075C32.9744 16.773 33.0612 16.9664 32.9957 17.1385ZM5.89381 28.6625C5.67148 29.5625 5.66844 30.3208 5.79482 30.9634C5.90294 31.5116 6.12372 31.9669 6.44959 32.34C7.19269 33.1928 8.42302 33.6298 9.81024 33.7287C9.78284 32.2075 9.4509 31.1644 8.94078 30.435C8.13677 29.2838 6.91861 28.9168 5.89381 28.6625Z" fill="white"/>
</svg>
